<svg xmlns="http://www.w3.org/2000/svg" viewBox="0 0 136.02 157.3"><defs><style>.cls-1,.cls-3,.cls-4{fill:none;stroke:#6dcff6;stroke-linecap:round;stroke-linejoin:round;stroke-width:5px;}.cls-2{fill:#6dcff6;}.cls-3{stroke-dasharray:4.36 10.89;}.cls-4{stroke-dasharray:4.09 10.24;}</style></defs><title>benefits</title><g id="Layer_2" data-name="Layer 2"><g id="Layer_1-2" data-name="Layer 1"><rect class="cls-1" x="88.12" y="135.85" width="45.4" height="18.95"/><path class="cls-1" d="M33.32,24A72.45,72.45,0,0,1,73.87,34.8C92.74,46.39,102.6,63.8,107,73.65"/><polygon class="cls-2" points="80.99 68.19 82.73 63.49 105.83 72.09 112.72 48.42 117.53 49.82 109.13 78.65 80.99 68.19"/><polyline class="cls-1" points="133.52 133.85 133.52 135.85 131.52 135.85"/><line class="cls-3" x1="120.63" y1="135.85" x2="95.57" y2="135.85"/><polyline class="cls-1" points="90.12 135.85 88.12 135.85 88.12 133.85"/><line class="cls-4" x1="88.12" y1="123.61" x2="88.12" y2="100.07"/><polyline class="cls-1" points="88.12 94.95 88.12 92.95 90.12 92.95"/><line class="cls-3" x1="101.02" y1="92.95" x2="126.07" y2="92.95"/><polyline class="cls-1" points="131.52 92.95 133.52 92.95 133.52 94.95"/><line class="cls-4" x1="133.52" y1="105.19" x2="133.52" y2="128.73"/><rect class="cls-1" x="2.5" y="2.5" width="45.4" height="152.3"/><polyline class="cls-1" points="47.9 43.4 47.9 45.4 45.9 45.4"/><line class="cls-3" x1="35.01" y1="45.4" x2="9.95" y2="45.4"/><polyline class="cls-1" points="4.5 45.4 2.5 45.4 2.5 43.4"/><line class="cls-4" x1="2.5" y1="33.16" x2="2.5" y2="9.62"/><polyline class="cls-1" points="2.5 4.5 2.5 2.5 4.5 2.5"/><line class="cls-3" x1="15.39" y1="2.5" x2="40.45" y2="2.5"/><polyline class="cls-1" points="45.9 2.5 47.9 2.5 47.9 4.5"/><line class="cls-4" x1="47.9" y1="14.74" x2="47.9" y2="38.28"/></g></g></svg>