<svg xmlns="http://www.w3.org/2000/svg" viewBox="0 0 201.05 144.59"><defs><style>.cls-1,.cls-2{fill:none;stroke:#6dcff6;stroke-linejoin:round;stroke-width:5px;}.cls-1{stroke-linecap:round;}.cls-3{fill:#6dcff6;}</style></defs><title>Asset 1</title><g id="Layer_2" data-name="Layer 2"><g id="Layer_1-2" data-name="Layer 1"><rect class="cls-1" x="2.5" y="2.5" width="69.56" height="45.4"/><line class="cls-2" x1="25.69" y1="2.5" x2="25.69" y2="47.9"/><line class="cls-2" x1="48.88" y1="2.5" x2="48.88" y2="47.9"/><rect class="cls-2" x="141.07" y="84.61" width="45.4" height="69.56" transform="translate(283.16 -44.38) rotate(90)"/><line class="cls-2" x1="198.55" y1="111.82" x2="128.99" y2="111.82"/><line class="cls-2" x1="198.55" y1="126.96" x2="128.99" y2="126.96"/><path class="cls-1" d="M93.38,21.26a67.35,67.35,0,0,1,35.12,12c19.16,13.08,29,32.81,33.37,43.66"/><polygon class="cls-3" points="107.67 43.89 111.44 40.61 95.26 22.02 114.99 7.23 111.98 3.23 87.96 21.24 107.67 43.89"/><polygon class="cls-3" points="136.17 70.15 138.14 65.55 160.79 75.27 168.83 51.96 173.56 53.59 163.77 81.98 136.17 70.15"/></g></g></svg>