<svg xmlns="http://www.w3.org/2000/svg" viewBox="0 0 45 45"><defs><style>.cls-1{fill:#fff;}</style></defs><title>Asset 23</title><g id="Layer_2" data-name="Layer 2"><g id="Layer_1-2" data-name="Layer 1"><path class="cls-1" d="M41.67,0H3.32A3.28,3.28,0,0,0,0,3.24V41.75A3.28,3.28,0,0,0,3.32,45H41.67A3.29,3.29,0,0,0,45,41.75V3.24A3.28,3.28,0,0,0,41.67,0ZM13.35,38.35H6.67V16.87h6.68ZM10,13.93a3.87,3.87,0,1,1,3.87-3.87A3.87,3.87,0,0,1,10,13.93ZM38.35,38.35H31.68V27.9c0-2.49-.05-5.69-3.47-5.69s-4,2.71-4,5.51V38.35H17.53V16.87h6.4v2.94H24a7,7,0,0,1,6.32-3.47c6.76,0,8,4.44,8,10.23Z"/></g></g></svg>