<svg xmlns="http://www.w3.org/2000/svg" xmlns:xlink="http://www.w3.org/1999/xlink" viewBox="0 0 602.79 186.64"><defs><style>.cls-1{fill:none;}.cls-2{clip-path:url(#clip-path);}.cls-3{fill:#6dcff6;}.cls-4{fill:#fff;}</style><clipPath id="clip-path" transform="translate(0 0)"><rect class="cls-1" width="602.79" height="186.64"/></clipPath></defs><title>logo</title><g id="Layer_2" data-name="Layer 2"><g id="Layer_1-2" data-name="Layer 1"><g class="cls-2"><path class="cls-3" d="M14.6,177.58a6.21,6.21,0,0,1-1.13-.62,34.21,34.21,0,0,1-8.33-8.05,6.25,6.25,0,0,1,10.14-7.31,22,22,0,0,0,5.3,5.08,6.25,6.25,0,0,1-6,10.9M41.52,186a6.25,6.25,0,0,1,2.87-12l1.42.09h.1a31.24,31.24,0,0,0,6.39-.48A6.25,6.25,0,1,1,54.53,186a43.3,43.3,0,0,1-9,.67h-.27l-1.75-.1a5.92,5.92,0,0,1-2-.47M3.82,143.59a6.25,6.25,0,0,1-3.7-7c.7-3.55,1.63-6.9,2.51-9.81a6.25,6.25,0,0,1,7.8-4.17,6.33,6.33,0,0,1,4.17,7.79,85.87,85.87,0,0,0-2.21,8.61A6.24,6.24,0,0,1,5.05,144a5.5,5.5,0,0,1-1.23-.38M74.17,170.2a6.49,6.49,0,0,1-1.3-.74,6.27,6.27,0,0,1-1.3-8.75c1.15-1.55,2.19-3.13,3.15-4.66.56-.9,1.11-1.81,1.66-2.75a6.25,6.25,0,0,1,10.78,6.34c-.61,1-1.23,2.06-1.85,3.05-1.11,1.78-2.34,3.63-3.7,5.47a6.24,6.24,0,0,1-7.44,2M15.28,107.35a6.25,6.25,0,0,1-3.43-7.88c1.12-3.1,2.23-6.12,3.31-9a6.25,6.25,0,0,1,11.7,4.4c-1.06,2.83-2.15,5.8-3.26,8.85a6.25,6.25,0,0,1-8,3.74l-.31-.12m76.58,29.27-.06,0a6.26,6.26,0,0,1-3.24-8.23l1-2.44,2.56-6.2a6.26,6.26,0,0,1,8.16-3.42l.07,0a6.25,6.25,0,0,1,3.36,8.11l-2.63,6.34L100,133.36a6.25,6.25,0,0,1-8.17,3.26M28.67,71.75a6.24,6.24,0,0,1-3.43-7.94c1.11-3,2.25-6,3.44-9a6.24,6.24,0,0,1,8.1-3.52l.14.06a6.25,6.25,0,0,1,3.38,8C39.14,62.34,38,65.28,37,68.18a6.24,6.24,0,0,1-8,3.67l-.24-.1m77.23,29.53a6.25,6.25,0,0,1-3.4-8c1.33-3.47,2.54-6.52,3.59-9a6.25,6.25,0,0,1,11.52,4.87c-1,2.39-2.16,5.32-3.45,8.64a6.25,6.25,0,0,1-8.08,3.59l-.18-.08M44.45,37.22a6.77,6.77,0,0,1-.85-.43,6.25,6.25,0,0,1-2.05-8.6,94.4,94.4,0,0,1,5.73-8.37,6.25,6.25,0,0,1,9.92,7.61,82.59,82.59,0,0,0-5,7.3,6.25,6.25,0,0,1-7.75,2.49M118,65.3a6.25,6.25,0,0,1-3.68-7c.58-2.87,1.06-5.84,1.38-8.83a6.25,6.25,0,1,1,12.42,1.34c-.36,3.37-.9,6.73-1.55,10a6.25,6.25,0,0,1-7.36,4.89A6.07,6.07,0,0,1,118,65.3M72.53,13.14a6.25,6.25,0,0,1,.92-11.83A46.14,46.14,0,0,1,84.35,0a6.25,6.25,0,1,1,0,12.5,33.85,33.85,0,0,0-7.94.94,6.19,6.19,0,0,1-3.91-.3M112.42,27c-1.28-1.84-3.56-5.17-5.59-6.84a6.25,6.25,0,1,1,8-9.64c3,2.48,7.1,8.26,8.36,10s2,6.68-2,9-7.48-.77-8.76-2.6" transform="translate(0 0)"/><path class="cls-3" d="M62.26,95.27l-2-.88a6.25,6.25,0,0,1,5-11.46l.12,0,1.78.77c2.15.91,4.36,1.77,6.64,2.55a6.47,6.47,0,0,1,3.88,7.94,6.26,6.26,0,0,1-8,3.88c-2.55-.88-5-1.84-7.43-2.85M35.4,80.07a6.11,6.11,0,0,1-1.22-.68c-4.48-3.21-7.29-5.58-7.91-6.1A6.27,6.27,0,0,1,24.43,66a6.44,6.44,0,0,1,9.9-2.26c.45.4,3,2.56,7.13,5.5A6.25,6.25,0,0,1,35.4,80.07m62.18,22.71a6.25,6.25,0,0,1,2.28-12,56.76,56.76,0,0,0,7.2-.63A6.25,6.25,0,0,1,109,102.49a68,68,0,0,1-8.82.78,6.2,6.2,0,0,1-2.59-.49" transform="translate(0 0)"/><path class="cls-4" d="M237,89.88l-5.49-17.46H207.22l-5.4,17.46H188.68l22.95-68.46h16.09l22.75,68.46ZM219.57,33.19h-.49l-8.72,28.15h18Z" transform="translate(0 0)"/><path class="cls-4" d="M276.76,91.06a25.84,25.84,0,0,1-10.1-1.87,19.45,19.45,0,0,1-7.4-5.39,24.16,24.16,0,0,1-4.56-8.48,36.74,36.74,0,0,1-1.57-11.14A36.16,36.16,0,0,1,254.7,53.1a23.74,23.74,0,0,1,4.56-8.39,19.65,19.65,0,0,1,7.4-5.34,25.84,25.84,0,0,1,10.1-1.86q7.75,0,12.8,3.43a19.24,19.24,0,0,1,7.31,9.51l-10.3,4.61a10.64,10.64,0,0,0-3.28-5.34,9.55,9.55,0,0,0-6.53-2.11q-5.29,0-7.89,3.33a13.84,13.84,0,0,0-2.6,8.73V69a13.62,13.62,0,0,0,2.6,8.68q2.6,3.28,7.89,3.28c3,0,5.33-.76,7-2.3a15.79,15.79,0,0,0,3.82-5.74l9.61,4.61a20.09,20.09,0,0,1-7.74,10.15,22.7,22.7,0,0,1-12.66,3.39" transform="translate(0 0)"/><path class="cls-4" d="M325.15,91.06A25.85,25.85,0,0,1,315,89.19a19.45,19.45,0,0,1-7.4-5.39,24.16,24.16,0,0,1-4.56-8.48,36.74,36.74,0,0,1-1.57-11.14,36.16,36.16,0,0,1,1.57-11.08,23.74,23.74,0,0,1,4.56-8.39,19.65,19.65,0,0,1,7.4-5.34,25.86,25.86,0,0,1,10.11-1.86q7.74,0,12.79,3.43a19.24,19.24,0,0,1,7.31,9.51L335,55.06a10.57,10.57,0,0,0-3.28-5.34,9.54,9.54,0,0,0-6.52-2.11q-5.31,0-7.9,3.33a13.84,13.84,0,0,0-2.6,8.73V69a13.62,13.62,0,0,0,2.6,8.68q2.6,3.28,7.9,3.28c3,0,5.32-.76,7-2.3a15.79,15.79,0,0,0,3.82-5.74l9.62,4.61a20.16,20.16,0,0,1-7.75,10.15,22.69,22.69,0,0,1-12.65,3.39" transform="translate(0 0)"/><path class="cls-4" d="M373.91,91.06a25.41,25.41,0,0,1-10.15-1.92,21,21,0,0,1-7.56-5.39,24.23,24.23,0,0,1-4.75-8.43,34.9,34.9,0,0,1-1.67-11.14,34.89,34.89,0,0,1,1.62-11,24,24,0,0,1,4.66-8.39,20.54,20.54,0,0,1,7.45-5.39,24.86,24.86,0,0,1,10-1.91,24.26,24.26,0,0,1,10.39,2.06,20,20,0,0,1,7.26,5.59,24,24,0,0,1,4.27,8.19,34.14,34.14,0,0,1,1.42,9.95v4.12h-34v1.27A12.54,12.54,0,0,0,366,77.6Q369.11,81,375.28,81A13.87,13.87,0,0,0,383,79a22.2,22.2,0,0,0,5.35-5l6.76,7.57a21,21,0,0,1-8.58,6.94,29.86,29.86,0,0,1-12.6,2.51m-.2-44.14a10,10,0,0,0-7.94,3.34,12.57,12.57,0,0,0-2.95,8.63v.78h21v-.88a13.38,13.38,0,0,0-2.6-8.58,9,9,0,0,0-7.5-3.29" transform="translate(0 0)"/><path class="cls-4" d="M422.57,91.06a27.54,27.54,0,0,1-12.36-2.5,28.49,28.49,0,0,1-8.83-6.92L409,74.19a23.34,23.34,0,0,0,6.23,5.1,15.9,15.9,0,0,0,7.8,1.86c3,0,5.18-.52,6.52-1.57a5.16,5.16,0,0,0,2-4.32,4.66,4.66,0,0,0-1.42-3.57,9,9,0,0,0-4.86-1.82l-5.1-.68q-8.34-1.08-12.7-4.76t-4.36-10.74A15.86,15.86,0,0,1,404.52,47a14.26,14.26,0,0,1,3.92-5.1,18,18,0,0,1,6.13-3.24,26.62,26.62,0,0,1,8-1.12,37.38,37.38,0,0,1,6.62.53,24.56,24.56,0,0,1,5.24,1.57,20.65,20.65,0,0,1,4.32,2.55,41.24,41.24,0,0,1,3.82,3.39l-7.35,7.35a19.48,19.48,0,0,0-5.4-3.92A15.2,15.2,0,0,0,423,47.41q-4.12,0-5.94,1.47a4.7,4.7,0,0,0-1.81,3.83,4.83,4.83,0,0,0,1.52,3.87,10.51,10.51,0,0,0,5.15,1.91l5.2.69q16.57,2.35,16.57,15.11a15.26,15.26,0,0,1-1.52,6.81,15.47,15.47,0,0,1-4.26,5.3,20.34,20.34,0,0,1-6.62,3.43,28.66,28.66,0,0,1-8.68,1.23" transform="translate(0 0)"/><path class="cls-4" d="M469.73,91.06a27.6,27.6,0,0,1-12.36-2.5,28.57,28.57,0,0,1-8.82-6.92l7.65-7.45a23.3,23.3,0,0,0,6.22,5.1,16,16,0,0,0,7.8,1.86q4.51,0,6.52-1.57a5.16,5.16,0,0,0,2-4.32,4.63,4.63,0,0,0-1.42-3.57,9,9,0,0,0-4.85-1.82l-5.1-.68q-8.34-1.08-12.7-4.76t-4.37-10.74A16,16,0,0,1,451.68,47a14.4,14.4,0,0,1,3.93-5.1,18,18,0,0,1,6.13-3.24,26.55,26.55,0,0,1,8-1.12,37.38,37.38,0,0,1,6.62.53,24.48,24.48,0,0,1,5.25,1.57,20.57,20.57,0,0,1,4.31,2.55,41.33,41.33,0,0,1,3.83,3.39l-7.36,7.35A19.43,19.43,0,0,0,477,49a15.24,15.24,0,0,0-6.87-1.57q-4.11,0-5.93,1.47a4.7,4.7,0,0,0-1.81,3.83,4.85,4.85,0,0,0,1.51,3.87A10.56,10.56,0,0,0,469,58.49l5.2.69q16.58,2.35,16.58,15.11a15.26,15.26,0,0,1-1.52,6.81A15.61,15.61,0,0,1,485,86.4a20.24,20.24,0,0,1-6.62,3.43,28.62,28.62,0,0,1-8.68,1.23" transform="translate(0 0)"/><path class="cls-4" d="M541,89.88q-6.46,0-9.85-3.38c-2.26-2.24-3.39-5.46-3.39-9.63V48.78h-7.55V38.68h3.92c1.9,0,3.19-.44,3.88-1.32a6.45,6.45,0,0,0,1-4V24.66h11.27v14h10.5v10.1h-10.5v31h9.71v10.1Z" transform="translate(0 0)"/><path class="cls-4" d="M579,91.06a24.94,24.94,0,0,1-9.86-1.87,20.43,20.43,0,0,1-7.45-5.39,24.64,24.64,0,0,1-4.76-8.49,34.79,34.79,0,0,1-1.67-11.13,34.35,34.35,0,0,1,1.67-11.08,24.27,24.27,0,0,1,4.76-8.39,20.65,20.65,0,0,1,7.45-5.34A24.94,24.94,0,0,1,579,37.51a25.25,25.25,0,0,1,9.9,1.86,20.54,20.54,0,0,1,7.51,5.34,24.25,24.25,0,0,1,4.75,8.39,34.35,34.35,0,0,1,1.67,11.08,34.79,34.79,0,0,1-1.67,11.13,24.62,24.62,0,0,1-4.75,8.49,20.31,20.31,0,0,1-7.51,5.39,25.25,25.25,0,0,1-9.9,1.87M579,81a10.19,10.19,0,0,0,7.84-3c1.9-2,2.85-5,2.85-8.92V59.47q0-5.78-2.85-8.82a11.51,11.51,0,0,0-15.59,0c-1.9,2-2.84,5-2.84,8.82V69c0,3.92.94,6.9,2.84,8.92A10.09,10.09,0,0,0,579,81" transform="translate(0 0)"/><polygon class="cls-4" points="223.21 130.7 222.81 130.7 217.52 141.59 203.49 167.48 189.47 141.59 184.17 130.7 183.78 130.7 183.78 179.84 171.52 179.84 171.52 111.38 186.13 111.38 203.69 144.82 204.08 144.82 221.44 111.38 235.47 111.38 235.47 179.84 223.21 179.84 223.21 130.7"/><path class="cls-4" d="M269.61,181a25.48,25.48,0,0,1-10.15-1.92,21,21,0,0,1-7.55-5.39,24.25,24.25,0,0,1-4.76-8.43,38.12,38.12,0,0,1,0-22.12,24,24,0,0,1,4.66-8.39,20.54,20.54,0,0,1,7.45-5.39,24.84,24.84,0,0,1,10-1.91,24.28,24.28,0,0,1,10.4,2.06,20,20,0,0,1,7.26,5.59,24.19,24.19,0,0,1,4.26,8.19,33.8,33.8,0,0,1,1.42,9.95v4.12h-34v1.27a12.54,12.54,0,0,0,3.14,8.91q3.13,3.36,9.32,3.35a13.87,13.87,0,0,0,7.7-1.94,22.16,22.16,0,0,0,5.34-5l6.77,7.57a21,21,0,0,1-8.58,6.94A29.87,29.87,0,0,1,269.61,181m-.19-44.14a10.06,10.06,0,0,0-7.95,3.34,12.56,12.56,0,0,0-2.94,8.63v.78h21v-.88a13.44,13.44,0,0,0-2.6-8.58,9,9,0,0,0-7.5-3.29" transform="translate(0 0)"/><path class="cls-4" d="M333.62,171.31h-.49a13.1,13.1,0,0,1-5.2,7.06A15.31,15.31,0,0,1,319,181q-9.72,0-14.86-7T299,154.14q0-12.84,5.15-19.76T319,127.47a15.49,15.49,0,0,1,8.92,2.59,12.86,12.86,0,0,1,5.2,7h.49V107.26h12.55v72.58H333.62ZM323,170.62a12.71,12.71,0,0,0,7.55-2.16,7.1,7.1,0,0,0,3-6.18V146a7.08,7.08,0,0,0-3-6,12.35,12.35,0,0,0-7.55-2.26,10.19,10.19,0,0,0-7.9,3.29,12.56,12.56,0,0,0-3,8.78v8.82a12.37,12.37,0,0,0,3,8.73,10.25,10.25,0,0,0,7.9,3.24" transform="translate(0 0)"/><path class="cls-4" d="M364.08,121.19q-3.91,0-5.64-1.77a6.2,6.2,0,0,1-1.71-4.51v-2a6.2,6.2,0,0,1,1.71-4.51q1.72-1.77,5.64-1.77c2.55,0,4.42.59,5.59,1.77a6.09,6.09,0,0,1,1.77,4.51v2a6.09,6.09,0,0,1-1.77,4.51c-1.17,1.18-3,1.77-5.59,1.77m-6.27,7.45h12.55v51.2H357.81Z" transform="translate(0 0)"/><path class="cls-4" d="M402.74,181a25.85,25.85,0,0,1-10.11-1.87,19.45,19.45,0,0,1-7.4-5.39,24.08,24.08,0,0,1-4.56-8.48,36.74,36.74,0,0,1-1.57-11.14,36.16,36.16,0,0,1,1.57-11.08,23.74,23.74,0,0,1,4.56-8.39,19.65,19.65,0,0,1,7.4-5.34,25.86,25.86,0,0,1,10.11-1.86q7.74,0,12.79,3.43a19.24,19.24,0,0,1,7.31,9.51L412.54,145a10.57,10.57,0,0,0-3.28-5.34,9.54,9.54,0,0,0-6.52-2.11q-5.31,0-7.9,3.33a13.84,13.84,0,0,0-2.6,8.73V159a13.6,13.6,0,0,0,2.6,8.68q2.6,3.28,7.9,3.28c3,0,5.32-.76,7-2.3a15.79,15.79,0,0,0,3.82-5.74l9.62,4.61a20.16,20.16,0,0,1-7.75,10.15A22.69,22.69,0,0,1,402.74,181" transform="translate(0 0)"/><path class="cls-4" d="M436.62,121.19q-3.93,0-5.64-1.77a6.21,6.21,0,0,1-1.72-4.51v-2a6.21,6.21,0,0,1,1.72-4.51q1.71-1.77,5.64-1.77t5.59,1.77A6.09,6.09,0,0,1,444,113v2a6.09,6.09,0,0,1-1.77,4.51q-1.77,1.77-5.59,1.77m-6.28,7.45H442.9v51.2H430.34Z" transform="translate(0 0)"/><path class="cls-4" d="M454.58,179.84v-51.2h12.55v8.54h.49a16.43,16.43,0,0,1,4.95-6.92q3.39-2.79,9.37-2.79,7.95,0,12.16,5.19t4.22,14.81v32.37H485.76V148.75q0-5.49-2-8.24c-1.31-1.83-3.46-2.75-6.47-2.75a13.18,13.18,0,0,0-3.78.54,10.66,10.66,0,0,0-3.23,1.57,8.28,8.28,0,0,0-2.31,2.55,7,7,0,0,0-.88,3.58v33.84Z" transform="translate(0 0)"/><path class="cls-4" d="M530.88,181a25.45,25.45,0,0,1-10.15-1.92,20.91,20.91,0,0,1-7.55-5.39,24.09,24.09,0,0,1-4.76-8.43,38,38,0,0,1-.05-22.12,24,24,0,0,1,4.66-8.39,20.62,20.62,0,0,1,7.45-5.39,24.89,24.89,0,0,1,10-1.91,24.23,24.23,0,0,1,10.39,2.06,19.82,19.82,0,0,1,7.26,5.59,24,24,0,0,1,4.27,8.19,33.8,33.8,0,0,1,1.42,9.95v4.12h-34v1.27a12.49,12.49,0,0,0,3.14,8.91q3.13,3.36,9.31,3.35A13.85,13.85,0,0,0,540,169a22,22,0,0,0,5.35-5l6.77,7.57a21,21,0,0,1-8.59,6.94,29.83,29.83,0,0,1-12.6,2.51m-.2-44.14a10,10,0,0,0-7.94,3.34,12.56,12.56,0,0,0-2.94,8.63v.78h21v-.88a13.44,13.44,0,0,0-2.6-8.58,9,9,0,0,0-7.51-3.29" transform="translate(0 0)"/></g></g></g></svg>