<svg xmlns="http://www.w3.org/2000/svg" viewBox="0 0 62.96 51.8"><defs><style>.cls-1{fill:#00427a;}.cls-2{fill:none;stroke:#00427a;stroke-miterlimit:10;stroke-width:2.7px;}</style></defs><title>support-icon</title><g id="Layer_2" data-name="Layer 2"><g id="Layer_1-2" data-name="Layer 1"><path class="cls-1" d="M52,51.8l-2.09-1.37L60.27,34.69l-4.61-18.6a4.39,4.39,0,0,0-3.19,4.69c.12,2.9,2.36,12,2.39,12.1l-2.43.6C52.34,33.1,50.1,24,50,20.88a7.06,7.06,0,0,1,6.49-7.52l1.08-.11L63,35.15Z"/><path class="cls-1" d="M41,49.14l-2.42-.63,2.73-10.59,5.9-7.12a4.35,4.35,0,0,1,6.7,5.54l-5,6.11L47,40.86l5-6.11a1.84,1.84,0,0,0-1.49-3,1.83,1.83,0,0,0-1.35.67l-5.55,6.68Z"/><path class="cls-1" d="M11,51.8,0,35.15l5.42-21.9,1.08.11A7.05,7.05,0,0,1,13,20.88c-.13,3.16-2.36,12.22-2.46,12.6l-2.43-.6c0-.09,2.28-9.2,2.4-12.1a4.42,4.42,0,0,0-3.2-4.69L2.69,34.69,13.08,50.43Z"/><path class="cls-1" d="M21.94,49.14l-2.6-10.06L13.8,32.4a1.85,1.85,0,0,0-2.75-.11,1.86,1.86,0,0,0-.1,2.46l5,6.11-1.92,1.59L9,36.34a4.35,4.35,0,0,1,6.7-5.54l5.9,7.12,2.74,10.59Z"/><path class="cls-2" d="M18.18,28.19a15,15,0,0,1,13.23-7.32h0a15,15,0,0,1,13.38,7.6"/><circle class="cls-2" cx="31.48" cy="8.29" r="6.94"/></g></g></svg>