<svg xmlns="http://www.w3.org/2000/svg" viewBox="0 0 75.86 61.39"><defs><style>.cls-1{fill:#6dcff6;}</style></defs><title>Asset 23</title><g id="Layer_2" data-name="Layer 2"><g id="Layer_1-2" data-name="Layer 1"><path class="cls-1" d="M75.86,7.27a31.46,31.46,0,0,1-8.94,2.44,15.57,15.57,0,0,0,6.84-8.58A31.15,31.15,0,0,1,63.88,4.9,15.58,15.58,0,0,0,37,15.5a15.78,15.78,0,0,0,.4,3.53A44.3,44.3,0,0,1,5.28,2.84,15.46,15.46,0,0,0,10.1,23.53a15.57,15.57,0,0,1-7-1.94v.19A15.52,15.52,0,0,0,15.53,37a15.78,15.78,0,0,1-4.1.54,14.93,14.93,0,0,1-2.93-.28A15.56,15.56,0,0,0,23,48,31.29,31.29,0,0,1,3.71,54.64,30.42,30.42,0,0,1,0,54.42a44.18,44.18,0,0,0,23.86,7c28.63,0,44.28-23.62,44.28-44.1,0-.66,0-1.34,0-2A31.8,31.8,0,0,0,75.86,7.27Z"/></g></g></svg>