<svg xmlns="http://www.w3.org/2000/svg" viewBox="0 0 244.37598 357.08352">
  <defs>
    <style>
      .cls-1 {
        fill: #ffcd21;
      }

      .cls-2 {
        fill: #ed1b35;
      }
    </style>
  </defs>
  <title>Bapie_logo</title>
  <g id="Layer_2" data-name="Layer 2">
    <g id="logo">
      <g>
        <g>
          <path d="M41.27246,232.37551q-.66651-.50976-1.418-1.00195c.10059-.0752.20313-.15234.30469-.23047a13.66727,13.66727,0,0,0,5.458-11.27832c0-5.09375-2.335-9.46-6.94043-12.97656-3.57813-2.73145-8.66114-4.11621-15.1084-4.11621H.77734v62.22265H22.82617A29.69982,29.69982,0,0,0,41.27344,258.896c4.1123-3.13965,6.19824-7.69629,6.19824-13.54394A15.49787,15.49787,0,0,0,41.27246,232.37551ZM30.82617,219.86477a4.07687,4.07687,0,0,1-1.96191,3.44824l-.002.001a7.80009,7.80009,0,0,1-4.92285,1.54687H16.30957v-9.708h8.74219a7.56038,7.56038,0,0,1,4.55273,1.8291A3.18641,3.18641,0,0,1,30.82617,219.86477Zm-14.5166,17.37695h6.5166a11.18341,11.18341,0,0,1,6.7793,2.68067,6.37369,6.37369,0,0,1,2.70508,5.42969,5.33838,5.33838,0,0,1-2.334,4.58105,13.68863,13.68863,0,0,1-8.63476,2.68066H16.30957Z"/>
          <path d="M72.12695,202.772,51.22656,264.99465H67.54883l5.19336-16.14257H83.96387l5.19336,16.14257h16.32226L84.5791,202.772Zm4.70313,33.70019,1.52246-4.7959,1.52344,4.7959Z"/>
          <path d="M150.10156,207.45461h-.001c-4.07129-3.10742-9.5293-4.68261-16.22071-4.68261h-22.79v62.22265h15.53125V241.48879h7.25879c6.69434,0,12.15235-1.57519,16.22168-4.68261,4.60547-3.5166,6.94043-8.4541,6.94043-14.67578C157.042,215.90774,154.707,210.97024,150.10156,207.45461Zm-23.48047,7.69825h5.03321c3.6455,0,6.42578.71191,8.26465,2.11523.84179.64258,1.96093,1.8457,1.96093,4.86231,0,3.01855-1.12011,4.22265-1.96191,4.86523-1.83594,1.40234-4.61621,2.11328-8.26367,2.11328h-5.03321Z"/>
          <polygon points="163.206 216.002 168.646 216.002 168.646 251.764 163.206 251.764 163.206 264.995 192.465 264.995 192.465 251.764 187.023 251.764 187.023 216.002 192.465 216.002 192.465 202.772 163.206 202.772 163.206 216.002"/>
          <polygon points="214.661 252.614 214.661 238.375 239.888 238.375 239.888 225.994 214.661 225.994 214.661 215.153 242.114 215.153 242.114 202.772 199.128 202.772 199.128 264.995 243.968 264.995 243.968 252.614 214.661 252.614"/>
        </g>
        <g>
          <path class="cls-1" d="M10.88672,295.90383a5.64855,5.64855,0,0,0,1.7041-2.54,10.88253,10.88253,0,0,0,.57031-3.69336,10.18426,10.18426,0,0,0-.373-2.80957,6.28762,6.28762,0,0,0-1.11036-2.23828,3.74115,3.74115,0,0,0-.79687-.74707,3.6869,3.6869,0,0,0,.75293-.71484,5.70239,5.70239,0,0,0,1.01172-2.04981,9.38491,9.38491,0,0,0,.31836-2.47851,11.70344,11.70344,0,0,0-.51367-3.665,5.3023,5.3023,0,0,0-1.63672-2.502,4.27869,4.27869,0,0,0-2.76953-.91211H1.585v25.28027H8.2207A4.12551,4.12551,0,0,0,10.88672,295.90383ZM9.25293,276.40774a4.135,4.135,0,0,1,.56836,2.4248,4.26436,4.26436,0,0,1-.51172,2.3418,1.49827,1.49827,0,0,1-1.35937.665H4.69629v-6.13086H7.65918A1.83332,1.83332,0,0,1,9.25293,276.40774Zm-4.55664,9.50488H7.9502a1.72416,1.72416,0,0,1,1.14648.35938,2.27169,2.27169,0,0,1,.67871,1.12109,7.14021,7.14021,0,0,1,.24316,2.02734,4.08779,4.08779,0,0,1-.63867,2.47168,2.25889,2.25889,0,0,1-1.94922.78516H4.69629Z"/>
          <polygon class="cls-1" points="26.793 292.594 19.2 292.594 19.2 286.396 25.649 286.396 25.649 282.157 19.2 282.157 19.2 275.793 26.793 275.793 26.793 271.553 16.079 271.553 16.079 296.834 26.793 296.834 26.793 292.594"/>
          <polygon class="cls-1" points="40.269 292.594 32.677 292.594 32.677 271.553 29.555 271.553 29.555 296.834 40.269 296.834 40.269 292.594"/>
          <path class="cls-1" d="M44.91211,295.89993a4.64366,4.64366,0,0,0,3.1416,1.18359,4.44181,4.44181,0,0,0,3.125-1.26269,7.7968,7.7968,0,0,0,1.99024-3.40235,16.29843,16.29843,0,0,0,.67968-4.91894v-4.74121H47.60645v4.25585H50.6748v.55176a10.31769,10.31769,0,0,1-.36328,2.91309,3.94789,3.94789,0,0,1-.959,1.74414,1.88489,1.88489,0,0,1-2.63184.01562,3.74339,3.74339,0,0,1-.98047-1.61718,8.19042,8.19042,0,0,1-.36816-2.58789v-7.16407a10.12865,10.12865,0,0,1,.36426-2.87109,4.26413,4.26413,0,0,1,.96875-1.80469,1.5764,1.5764,0,0,1,2.23144-.21191,3.35521,3.35521,0,0,1,.90821,1.166,6.42631,6.42631,0,0,1,.58593,1.94434l.06543.42383h3.292l-.06836-.56055A13.52318,13.52318,0,0,0,52.68164,275.02a7.32828,7.32828,0,0,0-1.97656-2.71191,4.21982,4.21982,0,0,0-2.71289-1.00586,4.44461,4.44461,0,0,0-3.124,1.2627,7.83214,7.83214,0,0,0-1.99121,3.39355,16.264,16.264,0,0,0-.67871,4.91113v7.16407a14.35223,14.35223,0,0,0,.69336,4.65429A7.32581,7.32581,0,0,0,44.91211,295.89993Z"/>
          <rect class="cls-1" x="57.02637" y="271.55325" width="3.12109" height="25.28027"/>
          <path class="cls-1" d="M70.46387,271.55325H67.85742l-5.80469,25.28027H65.374l1.13965-5.32715h5.29492l1.13965,5.32715h3.31934Zm-3.043,15.71386,1.74023-8.13183,1.74024,8.13183Z"/>
          <polygon class="cls-1" points="81.274 281.06 87.561 296.817 90.344 296.817 90.344 271.553 87.243 271.553 87.243 287.555 80.938 271.553 78.174 271.553 78.174 296.817 81.274 296.817 81.274 281.06"/>
          <path class="cls-1" d="M107.5918,271.55325l-5.80469,25.28027h3.32129l1.13965-5.32715H111.543l1.13965,5.32715H116.002l-5.80371-25.28027Zm-.43653,15.71386,1.74024-8.13183,1.74023,8.13183Z"/>
          <path class="cls-1" d="M121.75,297.05715l1.25293.02637a5.80325,5.80325,0,0,0,3.27734-.91016,5.695,5.695,0,0,0,2.083-2.6289,10.52812,10.52812,0,0,0,.69238-4.02442,9.73092,9.73092,0,0,0-.66308-3.9707,5.076,5.076,0,0,0-1.71582-2.20508,9.88117,9.88117,0,0,0-2.42578-1.13281l-.19239-.05371c-.05175-.01953-.10058-.03613-.18945-.06152a11.47523,11.47523,0,0,1-1.75488-.67579,2.32161,2.32161,0,0,1-.90625-.87988,3.30875,3.30875,0,0,1-.36719-1.72461,3.717,3.717,0,0,1,.73535-2.48633,2.51594,2.51594,0,0,1,2.03028-.82128,2.86542,2.86542,0,0,1,1.46582.43945,6.585,6.585,0,0,1,1.59375,1.42187l.51464.60645,1.66016-3.72266-.208-.24121a9.81537,9.81537,0,0,0-1.58593-1.48633,6.71285,6.71285,0,0,0-1.67481-.90918,5.16037,5.16037,0,0,0-1.76562-.31445,5.48233,5.48233,0,0,0-3.18653.92383,5.66194,5.66194,0,0,0-2.0166,2.65723,11.08524,11.08524,0,0,0-.66406,4.0498,9.7104,9.7104,0,0,0,.72558,4.18457,4.68457,4.68457,0,0,0,1.835,2.13965,11.92428,11.92428,0,0,0,2.56153.98242l.084.02051a.6445.6445,0,0,0,.21387.06445l.00488.002a7.914,7.914,0,0,1,1.57813.61719,2.21292,2.21292,0,0,1,.86426.90625,3.72866,3.72866,0,0,1,.3496,1.78711,3.45931,3.45931,0,0,1-.77343,2.42481,2.79581,2.79581,0,0,1-2.17969.81543,3.91076,3.91076,0,0,1-2.00684-.53321,5.76459,5.76459,0,0,1-1.74707-1.66308l-.48047-.668-1.83105,3.61328.18262.24805a9.12813,9.12813,0,0,0,1.67773,1.76562,6.642,6.642,0,0,0,1.97363,1.083Z"/>
          <path class="cls-1" d="M137.22559,292.87747a3.91071,3.91071,0,0,1-2.00684-.53321,5.74183,5.74183,0,0,1-1.74707-1.66211l-.47949-.66992-1.835,3.61426.18359.249a9.19477,9.19477,0,0,0,1.67969,1.76465,6.64183,6.64183,0,0,0,1.97363,1.083l.97852.334,1.25293.02637a5.80325,5.80325,0,0,0,3.27734-.91016,5.695,5.695,0,0,0,2.083-2.6289,10.52831,10.52831,0,0,0,.69238-4.02442,9.7309,9.7309,0,0,0-.66309-3.9707,5.07586,5.07586,0,0,0-1.71582-2.20508,9.88082,9.88082,0,0,0-2.42578-1.13281l-.19238-.05371c-.05176-.01953-.10059-.03613-.18945-.06152a11.475,11.475,0,0,1-1.75489-.67579,2.32175,2.32175,0,0,1-.90625-.87988,3.30875,3.30875,0,0,1-.36718-1.72461,3.717,3.717,0,0,1,.73535-2.48633,2.51593,2.51593,0,0,1,2.03027-.82128,2.86537,2.86537,0,0,1,1.46582.43945,6.585,6.585,0,0,1,1.59375,1.42187l.51465.60645,1.66016-3.72266-.208-.24121a9.815,9.815,0,0,0-1.58594-1.48633,6.71263,6.71263,0,0,0-1.6748-.90918,5.16046,5.16046,0,0,0-1.76563-.31445,5.48232,5.48232,0,0,0-3.18652.92383,5.66188,5.66188,0,0,0-2.0166,2.65723,11.06335,11.06335,0,0,0-.66407,4.0498,9.6956,9.6956,0,0,0,.72559,4.18457,4.68457,4.68457,0,0,0,1.835,2.13965,11.92438,11.92438,0,0,0,2.56152.98242l.084.02051a.6445.6445,0,0,0,.21387.06445l.00488.002a7.91411,7.91411,0,0,1,1.57812.61719,2.21286,2.21286,0,0,1,.86426.90625,3.72865,3.72865,0,0,1,.34961,1.78711,3.45927,3.45927,0,0,1-.77344,2.42481A2.79578,2.79578,0,0,1,137.22559,292.87747Z"/>
          <path class="cls-1" d="M148.7793,295.84133a4.55436,4.55436,0,0,0,6.25195,0,7.705,7.705,0,0,0,2.00391-3.35254,15.80065,15.80065,0,0,0,.68457-4.85546v-6.87989a15.79187,15.79187,0,0,0-.68457-4.85547,7.70522,7.70522,0,0,0-2.00391-3.35351,4.55436,4.55436,0,0,0-6.25195,0,7.73218,7.73218,0,0,0-2.00391,3.35351,15.79187,15.79187,0,0,0-.68457,4.85547v6.87989a15.81164,15.81164,0,0,0,.68457,4.85644A7.72808,7.72808,0,0,0,148.7793,295.84133Zm1.82226-3.65234a3.95607,3.95607,0,0,1-.96972-1.709,9.15834,9.15834,0,0,1-.36719-2.72949v-7.11426a9.15246,9.15246,0,0,1,.36816-2.73144,3.926,3.926,0,0,1,.96875-1.707,1.84722,1.84722,0,0,1,2.6084,0,3.96592,3.96592,0,0,1,.96973,1.707,9.1969,9.1969,0,0,1,.36621,2.73144v7.11426a9.20754,9.20754,0,0,1-.36524,2.72949,3.97151,3.97151,0,0,1-.97168,1.709A1.83548,1.83548,0,0,1,150.60156,292.189Z"/>
          <path class="cls-1" d="M163.60742,295.82961l1.334,1.25391H166.71a4.18246,4.18246,0,0,0,2.69922-1.00586,7.33429,7.33429,0,0,0,1.96973-2.71094,13.53843,13.53843,0,0,0,1.03808-3.93652l.06836-.56055h-3.16406l-.06738.4209a6.44546,6.44546,0,0,1-.61036,1.95215,3.279,3.279,0,0,1-.93359,1.16309,1.63556,1.63556,0,0,1-2.26465-.20508,4.268,4.268,0,0,1-.959-1.80371,10.23027,10.23027,0,0,1-.36426-2.86426v-6.66309a10.15746,10.15746,0,0,1,.36426-2.87109,4.3431,4.3431,0,0,1,.96094-1.80664,1.56768,1.56768,0,0,1,2.24707-.1875,3.61224,3.61224,0,0,1,.94824,1.21387,6.47167,6.47167,0,0,1,.61133,1.88281l.07226.415h3.15918l-.06836-.56055a13.651,13.651,0,0,0-1.03222-3.93457,7.30225,7.30225,0,0,0-1.96582-2.71191,4.20115,4.20115,0,0,0-2.709-1.00684,4.3921,4.3921,0,0,0-3.10351,1.26367,7.89446,7.89446,0,0,0-1.98047,3.39356,16.29838,16.29838,0,0,0-.67774,4.91015v6.66309a16.31624,16.31624,0,0,0,.67774,4.91211A7.826,7.826,0,0,0,163.60742,295.82961Z"/>
          <rect class="cls-1" x="175.54395" y="271.55325" width="3.12305" height="25.28027"/>
          <path class="cls-1" d="M185.39453,291.50637h5.29492l1.13965,5.32715h3.31934l-5.80371-25.28027H186.7373l-5.80371,25.28027h3.32129Zm2.64746-12.37109,1.74024,8.13183h-3.48047Z"/>
          <polygon class="cls-1" points="206.591 271.553 194.921 271.553 194.921 275.793 199.194 275.793 199.194 296.834 202.317 296.834 202.317 275.793 206.591 275.793 206.591 271.553"/>
          <rect class="cls-1" x="208.3623" y="271.55325" width="3.12305" height="25.28027"/>
          <path class="cls-1" d="M220.83887,297.08352a4.49531,4.49531,0,0,0,3.126-1.24219,7.70489,7.70489,0,0,0,2.00391-3.35254,15.80065,15.80065,0,0,0,.68457-4.85546v-6.87989a15.79187,15.79187,0,0,0-.68457-4.85547,7.70522,7.70522,0,0,0-2.00391-3.35351,4.55436,4.55436,0,0,0-6.252,0A7.73218,7.73218,0,0,0,215.709,275.898a15.79187,15.79187,0,0,0-.68457,4.85547v6.87989a15.81164,15.81164,0,0,0,.68457,4.85644,7.72817,7.72817,0,0,0,2.00391,3.35156A4.49535,4.49535,0,0,0,220.83887,297.08352Zm-1.30371-4.89453a3.95608,3.95608,0,0,1-.96973-1.709,9.15866,9.15866,0,0,1-.36719-2.72949v-7.11426a9.15244,9.15244,0,0,1,.36817-2.73144,3.92589,3.92589,0,0,1,.96875-1.707,1.84721,1.84721,0,0,1,2.60839,0,3.96572,3.96572,0,0,1,.96973,1.707,9.19658,9.19658,0,0,1,.36621,2.73144v7.11426a9.20756,9.20756,0,0,1-.36523,2.72949,3.97162,3.97162,0,0,1-.97168,1.709A1.83548,1.83548,0,0,1,219.53516,292.189Z"/>
          <polygon class="cls-1" points="233.294 281.056 239.58 296.817 242.364 296.817 242.364 271.553 239.263 271.553 239.263 287.555 232.959 271.553 230.194 271.553 230.194 296.817 233.294 296.817 233.294 281.056"/>
          <path class="cls-1" d="M4.70605,317.41555H7.94043a3.967,3.967,0,0,0,2.71387-1.0459,6.45373,6.45373,0,0,0,1.7373-2.80957,12.75189,12.75189,0,0,0,.59375-4.05957,12.78554,12.78554,0,0,0-.59375-4.0664,6.50721,6.50721,0,0,0-1.73535-2.8252,3.94892,3.94892,0,0,0-2.71582-1.05566H1.585v25.28027H4.70605ZM9.54688,307.44a7.231,7.231,0,0,1,.26464,2.06054,7.16325,7.16325,0,0,1-.26464,2.04395,2.97141,2.97141,0,0,1-.67969,1.25879,1.17117,1.17117,0,0,1-.85449.37207H4.70605V305.7925H8.0127a1.16021,1.16021,0,0,1,.85058.377A3.03533,3.03533,0,0,1,9.54688,307.44Z"/>
          <path class="cls-1" d="M17.97754,321.50637h5.29492l1.13965,5.32715h3.32031l-5.80371-25.28027H19.32129l-5.80371,25.28027h3.32031ZM20.625,309.13528l1.74023,8.13183H18.88477Z"/>
          <path class="cls-1" d="M33.207,316.564h2.292l3.22657,10.26953h3.57519L38.72559,315.938a4.4326,4.4326,0,0,0,.48339-.36621,6.14267,6.14267,0,0,0,1.68848-2.67676,13.12628,13.12628,0,0,0,.00488-7.68945,6.10037,6.10037,0,0,0-1.68359-2.67676,3.89153,3.89153,0,0,0-2.63184-.99218H30.085v25.29687H33.207Zm4.77735-9.35059a7.31191,7.31191,0,0,1,0,3.67285,2.6,2.6,0,0,1-.59668,1.11622.97565.97565,0,0,1-.71875.32128H33.207V305.7759H36.669a.96936.96936,0,0,1,.72167.31934A2.63217,2.63217,0,0,1,37.98438,307.2134Z"/>
          <path class="cls-1" d="M48.9668,301.55325l-5.80469,25.28027H46.4834l1.13965-5.32715H52.918l1.13965,5.32715H57.377l-5.80371-25.28027Zm-.43653,15.71386,1.74024-8.13183,1.74023,8.13183Z"/>
          <polygon class="cls-1" points="62.853 301.553 59.73 301.553 59.73 326.834 70.444 326.834 70.444 322.594 62.853 322.594 62.853 301.553"/>
          <polygon class="cls-1" points="76.255 301.553 73.134 301.553 73.134 326.834 83.847 326.834 83.847 322.594 76.255 322.594 76.255 301.553"/>
          <polygon class="cls-1" points="86.536 326.834 97.25 326.834 97.25 322.594 89.657 322.594 89.657 316.396 96.106 316.396 96.106 312.157 89.657 312.157 89.657 305.793 97.25 305.793 97.25 301.553 86.536 301.553 86.536 326.834"/>
          <polygon class="cls-1" points="103.581 301.553 100.459 301.553 100.459 326.834 111.173 326.834 111.173 322.594 103.581 322.594 103.581 301.553"/>
          <rect class="cls-1" x="119.61035" y="301.55325" width="3.12305" height="25.28027"/>
          <polygon class="cls-1" points="127.095 326.834 130.165 326.834 130.165 313.593 132.904 323.46 135.144 323.46 137.88 313.362 137.88 326.834 140.95 326.834 140.95 301.553 138.084 301.553 134.022 316.211 129.961 301.553 127.095 301.553 127.095 326.834"/>
          <path class="cls-1" d="M148.43457,317.41555H151.669a3.967,3.967,0,0,0,2.71386-1.0459,6.44767,6.44767,0,0,0,1.73828-2.81054,14.21715,14.21715,0,0,0,0-8.125,6.5125,6.5125,0,0,0-1.73632-2.8252,3.94892,3.94892,0,0,0-2.71582-1.05566h-6.35547v25.28027h3.12109Zm4.83984-9.97461a7.212,7.212,0,0,1,.26563,2.05957,7.12726,7.12726,0,0,1-.2666,2.04492,2.94019,2.94019,0,0,1-.67774,1.25782,1.17115,1.17115,0,0,1-.85449.37207h-3.30664V305.7925h3.30664a1.16023,1.16023,0,0,1,.85059.377A3.028,3.028,0,0,1,153.27441,307.44094Z"/>
          <path class="cls-1" d="M165.4873,327.08352a4.49534,4.49534,0,0,0,3.126-1.24219,7.70489,7.70489,0,0,0,2.00391-3.35254,15.80065,15.80065,0,0,0,.68457-4.85546v-6.87989a15.79187,15.79187,0,0,0-.68457-4.85547,7.70522,7.70522,0,0,0-2.00391-3.35351,4.55436,4.55436,0,0,0-6.25195,0,7.73218,7.73218,0,0,0-2.00391,3.35351,15.79187,15.79187,0,0,0-.68457,4.85547v6.87989a15.81164,15.81164,0,0,0,.68457,4.85644,7.72808,7.72808,0,0,0,2.00391,3.35156A4.49533,4.49533,0,0,0,165.4873,327.08352Zm-1.30371-4.89453a3.95617,3.95617,0,0,1-.96972-1.709,9.15834,9.15834,0,0,1-.36719-2.72949v-7.11426a9.15246,9.15246,0,0,1,.36816-2.73144,3.92609,3.92609,0,0,1,.96875-1.707,1.84722,1.84722,0,0,1,2.6084,0,3.96582,3.96582,0,0,1,.96973,1.707,9.1969,9.1969,0,0,1,.36621,2.73144v7.11426a9.20788,9.20788,0,0,1-.36523,2.72949,3.97172,3.97172,0,0,1-.97168,1.709A1.83549,1.83549,0,0,1,164.18359,322.189Z"/>
          <path class="cls-1" d="M178.47559,316.564h2.291l3.22656,10.26953h3.5752l-3.5752-10.89551a4.43174,4.43174,0,0,0,.4834-.36621A6.16641,6.16641,0,0,0,186.165,312.895a13.1265,13.1265,0,0,0,.00488-7.68945,6.10037,6.10037,0,0,0-1.68359-2.67676,3.89153,3.89153,0,0,0-2.63184-.99218h-6.50195v25.29687h3.12305Zm4.77636-9.35059a7.34133,7.34133,0,0,1,0,3.67285,2.59829,2.59829,0,0,1-.59668,1.11622.97562.97562,0,0,1-.71875.32128h-3.46093V305.7759h3.46093a.96882.96882,0,0,1,.72168.31836A2.64979,2.64979,0,0,1,183.252,307.2134Z"/>
          <polygon class="cls-1" points="196.173 326.834 196.173 305.793 200.446 305.793 200.446 301.553 188.776 301.553 188.776 305.793 193.05 305.793 193.05 326.834 196.173 326.834"/>
          <polygon class="cls-1" points="213.442 322.594 205.851 322.594 205.851 316.396 212.3 316.396 212.3 312.157 205.851 312.157 205.851 305.793 213.442 305.793 213.442 301.553 202.729 301.553 202.729 326.834 213.442 326.834 213.442 322.594"/>
          <path class="cls-1" d="M220.2002,316.564h2.291l3.22852,10.26953H229.293l-3.5752-10.89551a4.43174,4.43174,0,0,0,.4834-.36621,6.13921,6.13921,0,0,0,1.68848-2.67676,11.801,11.801,0,0,0,.57812-3.84472,11.921,11.921,0,0,0-.57226-3.84473,6.1087,6.1087,0,0,0-1.68262-2.67676,3.89462,3.89462,0,0,0-2.63379-.99218h-6.5v25.29687h3.1211Zm4.77636-9.35059a7.28244,7.28244,0,0,1,0,3.67285,2.59867,2.59867,0,0,1-.59765,1.11719.96382.96382,0,0,1-.71582.32031H220.2002V305.7759h3.46289a.96884.96884,0,0,1,.7207.31934A2.63039,2.63039,0,0,1,224.97656,307.2134Z"/>
          <path class="cls-1" d="M233.4209,325.64016a6.61949,6.61949,0,0,0,1.97461,1.082l.97754.335,1.25293.02637a5.81645,5.81645,0,0,0,3.27929-.91016,5.67685,5.67685,0,0,0,2.08106-2.6289,10.47544,10.47544,0,0,0,.69433-4.02442,9.89543,9.89543,0,0,0-.66308-3.9707,5.08486,5.08486,0,0,0-1.71582-2.20508,9.9036,9.9036,0,0,0-2.416-1.1289l-.21289-.06153c-.04785-.01758-.08984-.03125-.17871-.05761a11.29931,11.29931,0,0,1-1.75586-.67676,2.30767,2.30767,0,0,1-.90723-.87891,3.30875,3.30875,0,0,1-.36718-1.72461,3.72923,3.72923,0,0,1,.73535-2.48633,2.51593,2.51593,0,0,1,2.03027-.82128,2.86,2.86,0,0,1,1.46582.43945,6.58049,6.58049,0,0,1,1.59571,1.42187l.51464.60743,1.65821-3.72364-.208-.24121a9.847,9.847,0,0,0-1.585-1.4873,6.79525,6.79525,0,0,0-1.67383-.90918,5.21013,5.21013,0,0,0-1.76758-.31348,5.48762,5.48762,0,0,0-3.1875.92383,5.66593,5.66593,0,0,0-2.01367,2.65723,11.04588,11.04588,0,0,0-.666,4.0498,9.82443,9.82443,0,0,0,.72754,4.18359,4.655,4.655,0,0,0,1.835,2.14063,11.8738,11.8738,0,0,0,2.55958.98144l.084.02149a.53006.53006,0,0,0,.21973.06543,8.04076,8.04076,0,0,1,1.5791.61816,2.21615,2.21615,0,0,1,.86426.90528,3.7614,3.7614,0,0,1,.34765,1.78808,3.45881,3.45881,0,0,1-.77148,2.42383,2.80151,2.80151,0,0,1-2.18164.81641,3.95959,3.95959,0,0,1-2.00489-.53321,5.76034,5.76034,0,0,1-1.749-1.66308l-.48047-.668-1.83105,3.61328.18261.24805A9.15349,9.15349,0,0,0,233.4209,325.64016Z"/>
          <path class="cls-1" d="M5.80469,331.55325,0,356.83352H3.32129l1.13965-5.32715H9.75586l1.13965,5.32715h3.31933L8.41113,331.55325Zm-.43653,15.71386,1.74024-8.13183,1.74023,8.13183Z"/>
          <polygon class="cls-1" points="25.829 347.555 19.524 331.553 16.76 331.553 16.76 356.817 19.86 356.817 19.86 341.06 26.146 356.817 28.93 356.817 28.93 331.553 25.829 331.553 25.829 347.555"/>
          <path class="cls-1" d="M41.77246,332.67922a5.37206,5.37206,0,0,0-3.41992-1.126H33.05859v25.28027h5.28418a5.39269,5.39269,0,0,0,3.42383-1.126,6.77472,6.77472,0,0,0,2.13477-3.20117,15.022,15.022,0,0,0,.70312-4.873v-6.87989a15.01371,15.01371,0,0,0-.70312-4.873A6.795,6.795,0,0,0,41.77246,332.67922Zm-1.17871,4.28321a6.6731,6.6731,0,0,1,.83691,3.65722v7.14746a6.67314,6.67314,0,0,1-.83691,3.65723,2.44463,2.44463,0,0,1-2.17871,1.16992H36.18066V335.7925H38.415A2.44464,2.44464,0,0,1,40.59375,336.96243Z"/>
          <polygon class="cls-1" points="120.001 356.834 130.716 356.834 130.716 352.594 123.124 352.594 123.124 346.396 129.571 346.396 129.571 342.157 123.124 342.157 123.124 335.793 130.716 335.793 130.716 331.553 120.001 331.553 120.001 356.834"/>
          <polygon class="cls-1" points="145.098 331.553 141.64 331.553 138.731 339.526 135.787 331.553 132.328 331.553 137.093 343.951 132.206 356.834 135.663 356.834 138.748 348.359 141.869 356.834 145.327 356.834 140.384 343.931 145.098 331.553"/>
          <path class="cls-1" d="M156.61523,332.60891a3.9489,3.9489,0,0,0-2.71582-1.05566H147.544v25.28027H150.665v-9.418h3.23437a3.967,3.967,0,0,0,2.71387-1.0459,6.44767,6.44767,0,0,0,1.73828-2.81054,14.21715,14.21715,0,0,0,0-8.125A6.51242,6.51242,0,0,0,156.61523,332.60891Zm-1.11035,4.832a7.2124,7.2124,0,0,1,.26563,2.05957,7.12761,7.12761,0,0,1-.2666,2.04492,2.9404,2.9404,0,0,1-.67774,1.25782,1.17115,1.17115,0,0,1-.85449.37207H150.665V335.7925h3.30664a1.16023,1.16023,0,0,1,.85059.377A3.02815,3.02815,0,0,1,155.50488,337.44094Z"/>
          <path class="cls-1" d="M170.58789,332.54446a4.55553,4.55553,0,0,0-6.25391.001A7.72775,7.72775,0,0,0,162.332,335.897a15.74528,15.74528,0,0,0-.68457,4.85644v6.87989a15.74314,15.74314,0,0,0,.68457,4.85546,7.70474,7.70474,0,0,0,2.00195,3.35157v.001a4.55553,4.55553,0,0,0,6.25391-.001,7.72331,7.72331,0,0,0,2.00391-3.35157,15.80065,15.80065,0,0,0,.68457-4.85546v-6.87989a15.80274,15.80274,0,0,0-.68457-4.85644A7.7444,7.7444,0,0,0,170.58789,332.54446Zm-.48535,8.09179v7.11426a9.19139,9.19139,0,0,1-.36816,2.73047,3.93668,3.93668,0,0,1-.96778,1.707,1.8352,1.8352,0,0,1-2.60937,0,3.91707,3.91707,0,0,1-.96973-1.707,9.19139,9.19139,0,0,1-.36816-2.73047v-7.11426a9.20734,9.20734,0,0,1,.36816-2.73144,3.918,3.918,0,0,1,.9707-1.707,1.84722,1.84722,0,0,1,2.6084,0,3.93488,3.93488,0,0,1,.96778,1.707A9.20734,9.20734,0,0,1,170.10254,340.63625Z"/>
          <path class="cls-1" d="M186.19531,345.5718a6.16641,6.16641,0,0,0,1.68848-2.67676,13.1265,13.1265,0,0,0,.00488-7.68945,6.10037,6.10037,0,0,0-1.68359-2.67676,3.89155,3.89155,0,0,0-2.63184-.99218h-6.50195v25.29687h3.12305V346.564h2.291l3.22656,10.26953h3.5752l-3.5752-10.89551A4.43174,4.43174,0,0,0,186.19531,345.5718Zm-1.22461-8.3584a7.34133,7.34133,0,0,1,0,3.67285,2.59829,2.59829,0,0,1-.59668,1.11622.97562.97562,0,0,1-.71875.32128h-3.46093V335.7759h3.46093a.96882.96882,0,0,1,.72168.31836A2.64979,2.64979,0,0,1,184.9707,337.2134Z"/>
          <polygon class="cls-1" points="190.239 335.793 194.513 335.793 194.513 356.834 197.636 356.834 197.636 335.793 201.909 335.793 201.909 331.553 190.239 331.553 190.239 335.793"/>
          <polygon class="cls-1" points="203.937 356.834 214.651 356.834 214.651 352.594 207.06 352.594 207.06 346.396 213.507 346.396 213.507 342.157 207.06 342.157 207.06 335.793 214.651 335.793 214.651 331.553 203.937 331.553 203.937 356.834"/>
          <path class="cls-1" d="M227.1543,345.5718a6.16649,6.16649,0,0,0,1.68847-2.67676,13.12639,13.12639,0,0,0,.00489-7.68945,6.10047,6.10047,0,0,0-1.6836-2.67676,3.89151,3.89151,0,0,0-2.63183-.99218h-6.502v25.29687h3.12305V346.564h2.291l3.22656,10.26953h3.57519L226.6709,345.938A4.4327,4.4327,0,0,0,227.1543,345.5718Zm-1.22461-8.3584a7.34133,7.34133,0,0,1,0,3.67285,2.5985,2.5985,0,0,1-.59668,1.11622.97565.97565,0,0,1-.71875.32128h-3.46094V335.7759h3.46094a.96885.96885,0,0,1,.72168.31836A2.6499,2.6499,0,0,1,225.92969,337.2134Z"/>
          <path class="cls-1" d="M243.71289,345.54934a5.07593,5.07593,0,0,0-1.71582-2.20508,9.88082,9.88082,0,0,0-2.42578-1.13281l-.19238-.05371c-.05176-.01953-.10059-.03613-.18946-.06152a11.47523,11.47523,0,0,1-1.75488-.67579,2.32161,2.32161,0,0,1-.90625-.87988,3.30875,3.30875,0,0,1-.36719-1.72461,3.717,3.717,0,0,1,.73535-2.48633,2.516,2.516,0,0,1,2.03028-.82128,2.86539,2.86539,0,0,1,1.46582.43945,6.585,6.585,0,0,1,1.59375,1.42187l.51465.60645,1.66015-3.72266-.208-.24121a9.815,9.815,0,0,0-1.58593-1.48633,6.71268,6.71268,0,0,0-1.67481-.90918,5.16037,5.16037,0,0,0-1.76562-.31445,5.48235,5.48235,0,0,0-3.18653.92383,5.66194,5.66194,0,0,0-2.0166,2.65723,11.06337,11.06337,0,0,0-.66406,4.0498,9.6956,9.6956,0,0,0,.72559,4.18457,4.68452,4.68452,0,0,0,1.835,2.13965,11.92418,11.92418,0,0,0,2.56152.98242l.084.02051a.6445.6445,0,0,0,.21387.06445l.00489.002a7.91411,7.91411,0,0,1,1.57812.61719,2.21286,2.21286,0,0,1,.86426.90625,3.72865,3.72865,0,0,1,.34961,1.78711,3.45931,3.45931,0,0,1-.77344,2.42481,2.79581,2.79581,0,0,1-2.17969.81543,3.9107,3.9107,0,0,1-2.00683-.53321,5.74172,5.74172,0,0,1-1.74707-1.66211l-.4795-.66992-1.835,3.61426.1836.249a9.19443,9.19443,0,0,0,1.67968,1.76465,6.642,6.642,0,0,0,1.97364,1.083l.97851.334,1.25293.02637a5.80331,5.80331,0,0,0,3.27735-.91016,5.695,5.695,0,0,0,2.083-2.6289A10.52811,10.52811,0,0,0,244.376,349.52,9.7309,9.7309,0,0,0,243.71289,345.54934Z"/>
        </g>
        <polygon class="cls-1" points="30.65 51.283 40.253 51.593 42.868 42.158 45.163 51.646 53.722 51.288 46.108 56.601 51.183 65.139 42.868 59.64 33.933 65.155 39.276 56.514 30.65 51.283"/>
        <polygon class="cls-1" points="61.318 20.528 70.921 20.838 73.536 11.403 75.831 20.892 84.39 20.533 76.776 25.847 81.851 34.385 73.536 28.885 64.601 34.4 69.944 25.76 61.318 20.528"/>
        <polygon class="cls-1" points="103.907 9.125 113.511 9.435 116.125 0 118.42 9.489 126.979 9.13 119.365 14.443 124.44 22.981 116.125 17.482 107.19 22.997 112.534 14.356 103.907 9.125"/>
        <polygon class="cls-1" points="146.843 20.701 156.446 21.011 159.062 11.576 161.355 21.065 169.915 20.706 162.301 26.02 167.376 34.558 159.062 29.058 150.126 34.573 155.47 25.933 146.843 20.701"/>
        <polygon class="cls-1" points="177.079 51.283 186.683 51.593 189.298 42.158 191.592 51.646 200.151 51.288 192.537 56.601 197.612 65.139 189.298 59.64 180.362 65.155 185.706 56.514 177.079 51.283"/>
        <polygon class="cls-1" points="188.137 93.59 197.74 93.9 200.355 84.465 202.649 93.954 211.209 93.595 203.595 98.909 208.67 107.447 200.355 101.947 191.42 107.462 196.764 98.822 188.137 93.59"/>
        <polygon class="cls-1" points="177.56 136.379 187.163 136.689 189.778 127.254 192.072 136.743 200.632 136.384 193.018 141.697 198.093 150.235 189.778 144.736 180.843 150.251 186.187 141.61 177.56 136.379"/>
        <polygon points="46.935 75.367 54.486 71.077 62.123 66.958 68.472 63.44 72.505 61.294 75.852 59.665 77.482 62.496 78.254 64.47 78.512 65.414 80.313 65.585 82.63 64.727 83.66 64.47 83.66 115.696 82.716 113.293 82.458 110.977 81.257 108.488 79.541 106.944 78.34 106.858 76.538 107.201 75.165 107.458 73.191 106.772 71.818 105.056 70.703 102.739 70.617 99.564 70.789 97.763 70.617 95.874 69.416 94.245 68.043 93.901 66.327 93.901 64.954 93.901 64.01 94.073 63.238 95.532 62.294 95.789 60.235 95.446 57.918 95.532 56.545 95.532 54.314 93.472 52.941 91.67 51.482 90.555 50.281 89.268 49.938 86.865 49.938 84.119 49.251 82.231 48.308 80.687 47.792 80 48.222 78.284 47.535 76.568 46.935 75.367"/>
        <polygon class="cls-1" points="83.321 64.812 83.5 64.791 84.78 64.641 86.839 65.756 88.555 66.872 89.67 68.073 90.443 69.103 90.786 69.618 92.416 68.416 95.591 66.014 97.565 64.212 99.281 62.925 100.654 61.724 103.915 69.189 107.69 78.885 109.578 82.918 112.409 81.374 115.67 77.512 121.591 71.077 125.108 66.872 130 62.238 131.287 60.694 132.66 62.41 133.518 64.041 133.775 66.529 134.205 67.129 134.205 145.474 132.575 144.958 130.945 144.701 129.572 143.929 129.4 142.728 128.542 142.299 126.74 142.041 124.938 142.985 123.651 143.157 122.278 142.642 120.819 139.381 119.361 137.15 119.275 135.863 119.618 134.662 118.761 132.688 118.245 130.886 118.589 128.741 119.189 127.54 120.048 126.167 120.562 124.966 120.562 124.022 118.846 124.623 117.388 125.137 117.388 126.682 116.958 130.114 115.414 132.259 113.698 133.117 111.124 133.976 109.665 134.748 108.463 135.177 106.318 134.748 105.374 133.289 104.688 132.173 102.714 132.431 100.655 133.289 99.797 133.289 98.853 132.431 99.025 130.8 98.853 129.17 98.682 127.625 99.11 126.424 100.226 125.824 100.741 125.137 99.368 124.365 98.081 123.335 96.794 122.563 97.395 121.104 97.823 119.302 99.025 117.5 99.454 116.385 98.081 115.184 97.051 113.896 95.592 112.609 93.533 112.867 91.045 113.811 89.672 114.068 88.213 115.184 87.527 116.385 86.497 116.643 85.038 116.471 82.893 115.613 83.321 64.812"/>
        <polygon class="cls-2" points="133.862 66.878 134.806 67.65 135.407 66.621 137.037 65.162 138.238 63.875 139.697 63.618 141.156 64.304 142.872 65.505 144.846 67.565 146.99 69.195 149.136 69.882 151.796 71.598 153.512 73.743 153.855 76.06 152.482 78.462 150.08 81.294 149.308 83.182 147.935 84.983 147.248 86.013 147.42 88.073 148.449 90.132 150.166 90.732 152.568 91.076 154.971 90.475 157.459 90.046 159.519 90.732 162.265 93.135 163.466 94.852 166.555 96.567 167.842 96.997 166.812 99.228 166.211 101.374 166.469 103.175 167.584 104.806 169.387 105.063 170.502 105.921 171.017 109.525 171.017 112.7 169.901 114.588 168.014 116.39 166.812 116.904 165.868 118.191 165.868 120.766 165.268 122.997 163.122 123.769 161.406 123.855 159.861 123.426 158.832 123.083 157.803 123.426 156.344 125.915 154.799 128.231 152.997 131.063 152.054 134.238 151.882 137.07 153.512 139.558 155.485 141.188 155.657 143.505 155.143 145.822 154.971 147.367 156.086 149.598 155.313 151.915 153.941 152.687 151.453 152.344 149.65 152.429 147.763 154.231 144.073 155.69 142.014 156.033 139.783 154.317 138.324 152.944 138.324 151.485 137.123 150.027 134.806 146.766 133.176 145.05 133.862 66.878"/>
        <g>
          <path class="cls-1" d="M97.92628,54.481l12.332,28.9805,21.2115-22.938,2.0966-2.3428-10.1123-.7402a59.87525,59.87525,0,0,1,8.8301-9.6856c4.3584-3.7851,9.8731-7.1865,15.4639-6.9629,0,0-23.5547-10.2358-39.833,12.7022l-.8633,1.603Z"/>
          <path d="M109.94238,85.27494,96.36914,53.37357l10.10742.68262.623-1.14063c8.64453-12.18066,19.34375-15.08349,26.79785-15.37353a35.20407,35.20407,0,0,1,14.249,2.333l-.43847,1.916c-4.47754-.17187-9.42969,2.08252-14.76856,6.71875a59.66773,59.66773,0,0,0-7.58789,8.0669l10.31641.75537-3.45313,3.8584Zm-10.458-29.68653L110.57324,81.648l20.8916-22.61865-9.83691-.71972,1.00586-1.44141A60.31313,60.31313,0,0,1,131.62891,47c3.96-3.43946,7.77832-5.66016,11.40332-6.64014C135.6709,38.6431,120.419,37.6475,108.76562,54.023L107.627,56.13822Z"/>
        </g>
        <g>
          <path d="M159.834,66.3199s-8.7832-21.2071-27.9941-18.0054a19.10244,19.10244,0,0,1,7.2763-5.4258c4.6856-1.9736,7.1534-2.5898,7.8926-2.3433S159.834,43.3819,159.834,66.3199Z"/>
          <path d="M159.834,66.81986a.50072.50072,0,0,1-.46191-.30859c-.08594-.2085-8.86328-20.80372-27.45019-17.70362a.50008.50008,0,0,1-.48243-.79345,19.45962,19.45962,0,0,1,7.48243-5.58643c4.49218-1.89209,7.26562-2.68115,8.24511-2.35645l.1084.03174C159.39258,43.586,160.334,61.05033,160.334,66.31986a.50035.50035,0,0,1-.40234.49023A.51717.51717,0,0,1,159.834,66.81986ZM135.69629,47.48832c13.29492,0,20.97559,11.72461,23.585,16.57715-.30469-6.63282-2.1875-20.09961-12.28223-23.00147l-.14843-.04443c-.11719-.03907-1.29786-.29981-7.54,2.33007a19.1536,19.1536,0,0,0-6.2041,4.28418A23.38663,23.38663,0,0,1,135.69629,47.48832Z"/>
        </g>
        <polygon points="109.719 86.306 98.979 62.786 100.797 61.955 110.297 82.755 130.847 60.728 132.31 62.092 109.719 86.306"/>
        <path d="M142.61621,157.28031a2.1183,2.1183,0,0,1-1.56738-.59424,10.75163,10.75163,0,0,0-.91113-.68066c-1.60743-1.13184-3.43067-2.41455-2.876-4.08252-.03711-.23633-.6709-.84034-1.13379-1.28174-.23828-.22754-.49512-.47266-.76465-.74121a5.75939,5.75939,0,0,1-1.33594-2.06446,2.485,2.485,0,0,0-1.20214-1.4331,5.95235,5.95235,0,0,0-.82129-.4668,3.60761,3.60761,0,0,1-1.90723-.34472,2.68239,2.68239,0,0,1-1.73535-2.168c-.00977-.04688-.0166-.09375-.02735-.13916a3.19092,3.19092,0,0,0-.79882-.07276,4.54667,4.54667,0,0,0-2.14942.6416,3.14708,3.14708,0,0,1-2.53515.45264,4.04058,4.04058,0,0,1-2.04-2.27441,25.41517,25.41517,0,0,0-1.69336-2.9795c-.84864-1.32812-1.65039-2.582-.749-3.935.08106-.31787-.56152-1.395-.77343-1.74952-.165-.27636-.30664-.519-.39453-.706a1.91319,1.91319,0,0,1-.10547-.28369,5.76142,5.76142,0,0,1-4.3252,2.11474,4.90733,4.90733,0,0,0-2.292,1.20313l-.25977.19824c-1.05078.78516-3.02539.38867-4.09277-.14648a2.76406,2.76406,0,0,1-1.73438-2.20948,6.53617,6.53617,0,0,0-2.57128.65186c-1.64063.686-2.64063.30566-3.18946-.13574-.88867-.71582-1.17383-1.98975-.84668-3.78613a4.1247,4.1247,0,0,0-.168-1.68946c-.19531-.81006-.585-2.42676.97364-3.21387-.25782-.13867-.49512-.26269-.71289-.37646-1.15332-.60156-1.98731-1.03613-2.23047-1.9834a2.23278,2.23278,0,0,1,.40332-1.78711,3.35169,3.35169,0,0,0,.4248-1.15088,7.28681,7.28681,0,0,1,.92969-2.34375c.36133-.57861.53125-.8833.6084-1.03173-.12695-.11963-.29688-.27051-.52442-.45655a9.09955,9.09955,0,0,1-1.72656-1.90478,3.87517,3.87517,0,0,0-.40039-.50782,3.22339,3.22339,0,0,0-.41992.0835c-.92969.25342-1.74609.43164-2.44824.58447a13.27392,13.27392,0,0,0-1.81934.47071,6.21363,6.21363,0,0,1-.751.23291c-.65235.17041-.73633.19238-.87208.86914-.21679,1.08935-1.26562,2.1748-3.57226,1.94629-1.54981-.15332-3.85547-1.00977-3.85547-2.7417a14.84728,14.84728,0,0,0-.55566-4.49219c-.06446-.10742-.1377-.23682-.22071-.38281-.4209-.748-1.41308-2.51026-2.335-2.332-.2832.05127-.57617.11328-.873.17627-1.958.41455-4.6377.981-6.03711-1.34913a10.96257,10.96257,0,0,0-.93262-1.30761,5.03077,5.03077,0,0,1-1.3291-3.02735,18.47617,18.47617,0,0,1,.1084-3.24853,11.44585,11.44585,0,0,0,.06445-2.71582c-.3877-1.3628-.78711-1.646-1.94922-1.3794a6.12862,6.12862,0,0,1-2.84668.00977l-.05371-.01123c-1.12891,1.89306-2.47754,1.68408-4.69043,1.34472l-.19824-.03076a2.92566,2.92566,0,0,0-1.42481.126c-1.35742.38232-2.33984.28467-3.93457-1.311A14.28774,14.28774,0,0,1,53.11328,93.833a12.80112,12.80112,0,0,0-.92871-1.10107c-.25586-.26807-.52734-.50049-.79492-.73145A6.333,6.333,0,0,1,49.001,88.50443a10.72778,10.72778,0,0,1-.26172-2.94385,4.59752,4.59752,0,0,0-.15235-1.665,9.34251,9.34251,0,0,0-1.09863-1.92382c-.63965-.93262-1.36523-1.99024-.73437-3.09229a7.49682,7.49682,0,0,0-1.28809-3.28174l1.0166-.63428-.417-.60253.58691-.39747L76.07227,57.81547l.65039.8706c.25488.3418,2.418,3.29248,2.77441,5.56543a12.40148,12.40148,0,0,0,2.51172-.59131,7.29054,7.29054,0,0,1,1.96387-.45068c1.42675,0,5.76464,2.64551,7.20214,4.67627.29688-.23145.64063-.53125.8877-.74707a8.7463,8.7463,0,0,1,1.62305-1.22949,24.415,24.415,0,0,0,2.25195-1.83448c2.34766-2.03418,3.46973-2.94092,4.36328-3.08984,1.085-.1792,2.02734-.33154,10.66406,20.25928l20.32129-22.29883.92481.9956c2.71777,2.92725,2.71777,3.8169,2.71777,4.15186a8.33724,8.33724,0,0,0,.085,1.01221c2.07031-2.51465,4.2041-3.21631,6.377-2.13038a22.48724,22.48724,0,0,1,4.72852,3.76416,15.77038,15.77038,0,0,0,1.92578,1.68213l.28516.0918c2.13672.69531,4.4873,1.56006,5.32715,3.03027l.22754.38965c.73535,1.24317,1.84765,3.12158.72168,5.375a15.88038,15.88038,0,0,1-1.93165,2.71924,8.69061,8.69061,0,0,0-1.61425,2.37988,5.31583,5.31583,0,0,1-1.61035,2.68164,5.16613,5.16613,0,0,0-1.01758,1.375,5.93889,5.93889,0,0,1,.31445,1.42872c.15137,1.12988.20215,1.51074,1.48633,1.75146a9.79214,9.79214,0,0,0,4.27051-.46729,9.27,9.27,0,0,1,3.14355-.46484c2.36231.23584,5.2334,3.11084,5.94629,4.53565a19.61561,19.61561,0,0,0,4.52148,2.53369l1.16309.51172-.53125,1.15527a15.26533,15.26533,0,0,0-1.1748,3.82031,2.79234,2.79234,0,0,0,.54492,2.06494,1.21069,1.21069,0,0,0,.96191.41211c.86035,0,2.3916.40528,2.97852,3.11865a17.22079,17.22079,0,0,1,.27929,3.51075c0,1.57031-.90722,4.98584-2.71484,6.27636a7.1313,7.1313,0,0,1-1.33008.71289c-.89453.39551-1.08105.47754-1.08105,1.3877,0,1.22949-.16114,5.28174-2.23145,5.79883-.18359.0459-4.51269,1.11035-5.77148-.14551a.73836.73836,0,0,0-.49414-.08447c-.06055.01465-.24512.05908-.415.44189a20.55934,20.55934,0,0,1-1.78321,2.93555c-.31738.46338-.74218,1.084-.873,1.34668a1.834,1.834,0,0,1-.69727,1.165c-.28027.25-.75.668-1.15722,2.40137l-.08106.34277c-.70312,2.9751-.96191,4.3418.25977,5.564a3.84385,3.84385,0,0,0,1.28808.90381c1.15039.52881,1.501,1.18506,1.501,2.80811,0,.812-.08887,1.71582-.17481,2.58984a12.66264,12.66264,0,0,0-.10253,2.77246c.91308,1.05469.55957,3.10352.082,4.25684a2.88547,2.88547,0,0,1-2.52149,2.08545,11.2779,11.2779,0,0,1-1.82812-.22168,8.54075,8.54075,0,0,0-2.04492-.20069,5.41764,5.41764,0,0,1-3.59473,2.59375c-.26953.08985-.53906.19922-.83594.31885A9.09338,9.09338,0,0,1,142.61621,157.28031Zm-2.90723-4.833a11.18722,11.18722,0,0,0,1.86817,1.51416,13.26407,13.26407,0,0,1,1.0957.82227,9.5383,9.5383,0,0,0,2.12793-.67774c.35059-.1416.6709-.26953.92676-.355,1.16308-.38672,1.91211-.68066,2.209-1.37549.77344-1.80566,3.043-1.41308,4.7002-1.12646a12.14079,12.14079,0,0,0,1.30273.18262,3.50839,3.50839,0,0,0,.58594-2.272c-.792-.92334-.63184-2.54785-.43262-4.58447.08008-.81445.16309-1.65625.16309-2.3457,0-.25635-.00879-.4209-.01953-.52442l-.02539-.01172a6.31313,6.31313,0,0,1-2.01172-1.4082c-2.25977-2.25928-1.64063-4.876-.92481-7.90674l.08008-.33984a6.409,6.409,0,0,1,1.86231-3.63672,8.60335,8.60335,0,0,1,1.23535-2.11572,19.18017,19.18017,0,0,0,1.56152-2.53955,3.09359,3.09359,0,0,1,2.26758-1.88916,3.19012,3.19012,0,0,1,2.5293.6289,13.74456,13.74456,0,0,0,3.34375-.311,8.38509,8.38509,0,0,0,.55664-3.42383,3.586,3.586,0,0,1,2.57129-3.6748,5.02365,5.02365,0,0,0,.88672-.46c.82714-.59082,1.668-2.9541,1.668-4.22119a15.18558,15.18558,0,0,0-.22265-3.00244c-.1709-.792-.416-1.148-.53516-1.148a3.69524,3.69524,0,0,1-2.81543-1.23486,5.229,5.229,0,0,1-1.17969-3.99121,14.63308,14.63308,0,0,1,.91309-3.458c-1.83008-.86816-4.10156-2.12109-4.63965-3.19482-.459-.91748-2.71387-3.043-3.958-3.16748a7.79893,7.79893,0,0,0-2.26464.39648,12.082,12.082,0,0,1-5.36231.50537,3.88348,3.88348,0,0,1-3.50293-3.876,4.80384,4.80384,0,0,0-.1875-.94824c-.57617-1.53467.5791-2.82275,1.50781-3.85742a5.203,5.203,0,0,0,.99024-1.32324c.14941-1.19141,1.125-2.38623,2.1582-3.65039a14.303,14.303,0,0,0,1.63184-2.25586c.49218-.98438.0791-1.7749-.63672-2.9834l-.24707-.42285c-.19727-.34473-1.03809-.95264-3.92969-1.89307l-.333-.10937a9.59482,9.59482,0,0,1-2.82715-2.23,20.98362,20.98362,0,0,0-4.123-3.33985c-.84375-.42138-2.06836-.51806-4.08692,2.50977a1.72386,1.72386,0,0,1-1.99121.89844c-1.583-.4795-1.751-3.47754-1.76562-4.38282a10.49875,10.49875,0,0,0-1.15137-1.57129l-21.1084,23.16309-.75488-1.812c-3.54883-8.51367-7.69727-17.79541-9.19629-20.25195-.70215.51757-1.87109,1.53076-2.64355,2.20019a17.9903,17.9903,0,0,1-2.77247,2.18115,9.177,9.177,0,0,0-1.09668.87744c-1.208,1.05323-2.2539,1.96-3.3916,1.603a1.71921,1.71921,0,0,1-1.13574-1.27685c-.36621-.88623-4.23633-3.47412-5.26953-3.64356-.10742.01709-.7168.20557-1.16211.34326-1.67773.51856-3.57812,1.10694-4.7998.28711a2.07858,2.07858,0,0,1-.90528-1.58008,10.55051,10.55051,0,0,0-1.70605-3.68457L48.43945,75.83451c.584,1.24658,1.07715,2.8125.62891,3.981.10742.19628.31738.5039.48144.74267a11.553,11.553,0,0,1,1.375,2.44971,6.66961,6.66961,0,0,1,.31348,2.59326,8.43994,8.43994,0,0,0,.18848,2.29736,3.98154,3.98154,0,0,0,1.59668,2.21c.32715.28223.65625.56934.96972.897a15.12767,15.12767,0,0,1,1.09473,1.29492,12.09346,12.09346,0,0,0,1.09375,1.26758c.85352.853.96289.81982,1.48926.67236a5.3838,5.3838,0,0,1,2.4834-.19043l.19922.03076a7.72173,7.72173,0,0,0,1.916.18213,1.36382,1.36382,0,0,0,.27637-.38916,2.17559,2.17559,0,0,1,2.67285-1.10449A3.65216,3.65216,0,0,0,67,92.7725c1.7207-.39844,3.97168-.17871,4.916,3.12841a11.0576,11.0576,0,0,1,.02148,3.624,16.91156,16.91156,0,0,0-.11035,2.77783,2.61256,2.61256,0,0,0,.792,1.71387,13.44,13.44,0,0,1,1.126,1.584c.41113.68652,1.376.61182,3.375.18945.32129-.06787.63769-.13476.94336-.19043,2.68554-.48193,4.27734,2.35206,4.96,3.56348l.18652.3252c.78516,1.30713.89453,4.585.91016,5.52734a3.70923,3.70923,0,0,0,2.5.45215A3.18922,3.18922,0,0,1,89.291,112.774a3.797,3.797,0,0,0,.4541-.13525,14.49313,14.49313,0,0,1,2.21484-.5918c.666-.145,1.44043-.31348,2.32227-.5542a2.84373,2.84373,0,0,1,3.51074,1.38037,6.72766,6.72766,0,0,0,1.27832,1.42627c.99414.81348,2.02051,1.77539,1.61719,2.89356a1.428,1.428,0,0,1-.43164.61181c-.17188.34278-.4209.74219-.73438,1.24268a4.88211,4.88211,0,0,0-.62012,1.61084,5.97044,5.97044,0,0,1-.625,1.70752c.21875.12549.50391.2749.75391.40527.26172.13574.5498.28662.86523.458.874.47705,2.19532,1.19775,2.084,2.44824-.10156,1.13184-1.2666,1.57569-2.042,1.83692.02734.146.07129.32861.10742.478a6.36567,6.36567,0,0,1,.19629,2.72217,3.10523,3.10523,0,0,0-.03711,1.35156,2.12943,2.12943,0,0,0,.65332-.18457c2.32129-.96875,4.02832-1.10693,5.07324-.41064a2.15034,2.15034,0,0,1,.94922,1.856,3.21958,3.21958,0,0,0,1.9209.50146l.15332-.11621a6.696,6.696,0,0,1,3.81445-1.72022,3.30545,3.30545,0,0,0,2.75879-1.74121,5.81088,5.81088,0,0,0,.42871-3.22412c-.01855-.33349-.03515-.64892-.03515-.938,0-1.792.76757-2.16259,2.03124-2.55908.27149-.08545.6084-.1914,1.02735-.34375,1.60547-.58447,2.32617.21924,2.56348.59082.89941,1.41309-.51368,3.604-1.29688,4.38672a5.48859,5.48859,0,0,0-.76855,3.47363c.04492.08936.14746.25586.26269.44873.63574,1.065,1.69434,2.83692.751,4.3501a8.79673,8.79673,0,0,0,.73144,1.26856,28.01656,28.01656,0,0,1,1.84668,3.25634,3.62876,3.62876,0,0,0,.57227.94483,6.09271,6.09271,0,0,0,.61816-.28565,6.88183,6.88183,0,0,1,3.27442-.90869c2.47265,0,3.03515,1.05762,3.27343,2.20117a1.92405,1.92405,0,0,0,.07325.2876h0a1.04769,1.04769,0,0,0,.14257.06983c.51465.20556.62793.18994.69336.18213.74805-.08985,1.26953.08984,2.44922.8413a4.90975,4.90975,0,0,1,2.16406,2.57227,3.378,3.378,0,0,0,.79981,1.2666c.25391.25391.49707.48486.72168.69971C138.9375,149.86576,140.05762,150.93314,139.709,152.4473Zm16.68164-4.95019.001.001Zm-.73535-18.65723v0Zm-37.23339-2.83643v.085q0,.17139.00878.35694c.01563-.01709.03223-.03418.04883-.05078a3.20041,3.20041,0,0,0,.42774-.54493q-.10841.03443-.20508.06446C118.6084,125.94339,118.50977,125.97464,118.42188,126.00345Z"/>
      </g>
    </g>
  </g>
</svg>
