<svg xmlns="http://www.w3.org/2000/svg" viewBox="0 0 134.09 142.13">
  <defs>
    <style>
      .cls-1 {
        fill: #004a67;
      }

      .cls-2 {
        fill: #ebcb47;
      }

      .cls-3 {
        fill: none;
        stroke: #ebcb47;
        stroke-miterlimit: 10;
        stroke-width: 0.54px;
      }
    </style>
  </defs>
  <title>EAEPC_logo</title>
  <g id="Layer_2" data-name="Layer 2">
    <g id="Layer_1-2" data-name="Layer 1">
      <g id="Layer_1-2-2" data-name="Layer 1-2">
        <rect class="cls-1" width="134.09" height="142.13"/>
        <polygon class="cls-2" points="11.1 124.67 9.44 128.04 5.66 128.59 8.39 131.25 7.75 135 11.12 133.23 14.49 135 13.85 131.25 16.58 128.59 12.81 128.04 11.14 124.67 11.1 124.67"/>
        <polygon class="cls-2" points="39 124.67 37.34 128.04 33.57 128.59 36.3 131.25 35.65 135 39.02 133.23 42.4 135 41.75 131.25 44.48 128.59 40.71 128.04 39.05 124.67 39 124.67"/>
        <polygon class="cls-2" points="66.91 124.67 65.24 128.04 61.47 128.59 64.2 131.25 63.55 135 66.93 133.23 70.3 135 69.66 131.25 72.39 128.59 68.61 128.04 66.95 124.67 66.91 124.67"/>
        <polygon class="cls-2" points="94.81 124.67 93.15 128.04 89.37 128.59 92.1 131.25 91.46 135 94.83 133.23 98.2 135 97.56 131.25 100.29 128.59 96.52 128.04 94.85 124.67 94.81 124.67"/>
        <polygon class="cls-2" points="122.71 124.67 121.05 128.04 117.28 128.59 120.01 131.25 119.36 135 122.74 133.23 126.11 135 125.46 131.25 128.19 128.59 124.42 128.04 122.76 124.67 122.71 124.67"/>
        <line class="cls-3" x1="5.66" y1="117.98" x2="128.42" y2="117.98"/>
        <polygon class="cls-2" points="9.84 98.62 16.88 98.62 16.63 99.88 11.09 99.88 10.27 104.03 14.96 104.03 14.69 105.31 10.04 105.31 9.05 110.09 14.76 110.09 14.49 111.38 7.3 111.38 9.84 98.62"/>
        <path class="cls-2" d="M39.78,98.62h1.75L43,111.37H41.44l-.35-4H36.58l-2,4H32.86Zm-2.6,7.6H41l-.19-2.17c-.12-1.35-.26-2.71-.35-4.17h-.08c-.68,1.48-1.32,2.77-2,4.17Z"/>
        <polygon class="cls-2" points="64.53 98.62 71.57 98.62 71.32 99.88 65.78 99.88 64.96 104.03 69.65 104.03 69.38 105.31 64.73 105.31 63.74 110.09 69.45 110.09 69.18 111.38 61.99 111.38 64.53 98.62"/>
        <path class="cls-2" d="M91.81,98.62h3.6c2.39,0,4,.89,4,3.11,0,3.13-2.33,4.51-5.58,4.51h-2l-1,5.14H89.27Zm2.08,6.4c2.63,0,4-1,4-3.09,0-1.48-1-2.1-2.88-2.1h-2l-1,5.19Z"/>
        <path class="cls-2" d="M117.89,106.46c0-4,2.64-8.07,6.59-8.07a3.55,3.55,0,0,1,3.13,1.88l-1,.8a2.51,2.51,0,0,0-2.16-1.38c-3,0-5,3.54-5,6.63,0,2.31,1,4,3.25,4a4.13,4.13,0,0,0,2.7-1.15l.68,1a5.42,5.42,0,0,1-3.65,1.48c-2.92,0-4.53-2.1-4.53-5.15"/>
      </g>
    </g>
  </g>
</svg>
