<svg xmlns="http://www.w3.org/2000/svg" xmlns:xlink="http://www.w3.org/1999/xlink" viewBox="0 0 20 20"><defs><style>.cls-1{fill:none;}.cls-2{clip-path:url(#clip-path);}.cls-3{fill:#e60000;}.cls-3,.cls-4{fill-rule:evenodd;}.cls-4{fill:#fff;}</style><clipPath id="clip-path" transform="translate(0 0)"><rect class="cls-1" width="20" height="20"/></clipPath></defs><title>flag-da</title><g id="Layer_2" data-name="Layer 2"><g id="Layer_1-2" data-name="Layer 1"><g class="cls-2"><path class="cls-3" d="M10,20A10,10,0,1,0,0,10,10,10,0,0,0,10,20" transform="translate(0 0)"/><path class="cls-4" d="M19.93,8.81H.07a10.15,10.15,0,0,0,0,2.38H19.93a10.15,10.15,0,0,0,0-2.38" transform="translate(0 0)"/><path class="cls-4" d="M8.2.16A10,10,0,0,0,5.1,1.28V18.72a10,10,0,0,0,3.1,1.12Z" transform="translate(0 0)"/></g></g></g></svg>