<svg xmlns="http://www.w3.org/2000/svg" xmlns:xlink="http://www.w3.org/1999/xlink" viewBox="0 0 20 20"><defs><style>.cls-1{fill:none;}.cls-2{clip-path:url(#clip-path);}.cls-3{fill:#1168ab;}.cls-3,.cls-4{fill-rule:evenodd;}.cls-4{fill:#ffd900;}</style><clipPath id="clip-path" transform="translate(0 0)"><rect class="cls-1" width="20" height="20"/></clipPath></defs><title>flag-sw</title><g id="Layer_2" data-name="Layer 2"><g id="Layer_1-2" data-name="Layer 1"><g class="cls-2"><path class="cls-3" d="M10,20A10,10,0,1,0,0,10,10,10,0,0,0,10,20" transform="translate(0 0)"/><path class="cls-4" d="M4.58,1.6V18.41a9.86,9.86,0,0,0,3.89,1.47V.12A9.87,9.87,0,0,0,4.58,1.6" transform="translate(0 0)"/><path class="cls-4" d="M19.81,8.06H.19a10,10,0,0,0,0,3.88H19.81a10,10,0,0,0,0-3.88" transform="translate(0 0)"/></g></g></g></svg>