<svg xmlns="http://www.w3.org/2000/svg" xmlns:xlink="http://www.w3.org/1999/xlink" viewBox="0 0 145.21 145.21"><defs><style>.cls-1{fill:none;}.cls-2{clip-path:url(#clip-path);}.cls-3{fill:#039;}.cls-3,.cls-4{fill-rule:evenodd;}.cls-4{fill:#fc0;}</style><clipPath id="clip-path" transform="translate(0 0)"><rect class="cls-1" width="145.21" height="145.21"/></clipPath></defs><title>flag-eu</title><g id="Layer_2" data-name="Layer 2"><g id="Layer_1-2" data-name="Layer 1"><g class="cls-2"><path class="cls-3" d="M72.6,145.21A72.61,72.61,0,1,0,0,72.61a72.75,72.75,0,0,0,72.6,72.6" transform="translate(0 0)"/><polygon class="cls-4" points="72.6 14.35 74.53 20.31 80.8 20.3 75.72 23.98 77.67 29.93 72.6 26.24 67.54 29.93 69.49 23.98 64.42 20.3 70.68 20.31 72.6 14.35"/><polygon class="cls-4" points="97.83 21.1 99.76 27.06 106.03 27.05 100.95 30.73 102.89 36.68 97.83 32.99 92.77 36.68 94.72 30.73 89.64 27.05 95.91 27.06 97.83 21.1"/><polygon class="cls-4" points="116.29 39.6 118.22 45.56 124.48 45.55 119.41 49.23 121.36 55.19 116.29 51.49 111.23 55.19 113.18 49.23 108.1 45.55 114.37 45.56 116.29 39.6"/><polygon class="cls-4" points="123.05 64.81 124.97 70.77 131.24 70.76 126.16 74.43 128.11 80.39 123.05 76.7 117.98 80.39 119.93 74.43 114.86 70.76 121.12 70.77 123.05 64.81"/><polygon class="cls-4" points="116.34 90.05 118.26 96.02 124.53 96 119.45 99.68 121.4 105.64 116.34 101.94 111.28 105.64 113.22 99.68 108.15 96 114.41 96.02 116.34 90.05"/><polygon class="cls-4" points="97.81 108.48 99.74 114.45 106 114.44 100.93 118.11 102.88 124.07 97.81 120.38 92.75 124.07 94.7 118.11 89.62 114.44 95.89 114.45 97.81 108.48"/><polygon class="cls-4" points="72.58 115.28 74.51 121.25 80.78 121.23 75.7 124.91 77.65 130.87 72.58 127.17 67.52 130.87 69.47 124.91 64.39 121.23 70.66 121.25 72.58 115.28"/><polygon class="cls-4" points="47.4 108.5 49.32 114.46 55.59 114.45 50.51 118.13 52.46 124.08 47.4 120.39 42.34 124.08 44.28 118.13 39.21 114.45 45.47 114.46 47.4 108.5"/><polygon class="cls-4" points="28.85 90 30.78 95.96 37.05 95.95 31.97 99.63 33.92 105.58 28.85 101.89 23.79 105.58 25.74 99.63 20.66 95.95 26.93 95.96 28.85 90"/><polygon class="cls-4" points="22.14 64.81 24.07 70.77 30.33 70.76 25.26 74.44 27.2 80.39 22.14 76.7 17.08 80.39 19.03 74.44 13.95 70.76 20.22 70.77 22.14 64.81"/><polygon class="cls-4" points="28.82 39.65 30.75 45.61 37.02 45.6 31.94 49.28 33.89 55.23 28.82 51.54 23.76 55.23 25.71 49.28 20.63 45.6 26.9 45.61 28.82 39.65"/><polygon class="cls-4" points="47.32 21.18 49.25 27.14 55.52 27.13 50.44 30.81 52.39 36.77 47.32 33.07 42.26 36.77 44.21 30.81 39.13 27.13 45.4 27.14 47.32 21.18"/></g></g></g></svg>