<svg xmlns="http://www.w3.org/2000/svg" xmlns:xlink="http://www.w3.org/1999/xlink" viewBox="0 0 20 20"><defs><style>.cls-1{fill:none;}.cls-2{clip-path:url(#clip-path);}.cls-3{fill:red;}.cls-3,.cls-4,.cls-5,.cls-6,.cls-7,.cls-8{fill-rule:evenodd;}.cls-4{fill:#060;}.cls-5{fill:#ff0;}.cls-7{fill:#fff;}.cls-8{fill:#039;}</style><clipPath id="clip-path" transform="translate(0 0)"><rect class="cls-1" width="20" height="20"/></clipPath></defs><title>flag-po</title><g id="Layer_2" data-name="Layer 2"><g id="Layer_1-2" data-name="Layer 1"><g class="cls-2"><path class="cls-3" d="M10,20A10,10,0,1,0,0,10,10,10,0,0,0,10,20" transform="translate(0 0)"/><path class="cls-4" d="M7,19.54V.46A10,10,0,0,0,7,19.54" transform="translate(0 0)"/><path class="cls-5" d="M10.92,13.1C9.4,13.06,2.48,8.73,2.43,8l.38-.63c.69,1,7.77,5.2,8.47,5.05l-.37.64Z" transform="translate(0 0)"/><path class="cls-5" d="M2.73,7.32c-.13.36,1.81,1.57,4.15,3s4.35,2.3,4.5,2.17l.07-.12s-.1.05-.2,0a23.41,23.41,0,0,1-4.32-2.17C4.89,9,3.11,7.83,2.84,7.34a.21.21,0,0,1,0-.14h0l-.06.1ZM11,13.12c0,.05-.07.05-.16,0a18.14,18.14,0,0,1-4.31-2.11c-2.36-1.41-4.31-2.7-4.1-3l.06-.1h0c-.19.57,3.85,2.88,4.08,3C8.87,12.39,10.84,13.23,11,13Z" transform="translate(0 0)"/><path class="cls-6" d="M2.74,7.33c-.06.17.39.56,1.15,1.08s1.83,1.18,3,1.88,2.05,1.18,2.83,1.56a4.85,4.85,0,0,0,1.65.62l0-.07h0a.37.37,0,0,1-.13,0h0a12.07,12.07,0,0,1-1.87-.81c-.7-.35-1.54-.81-2.45-1.36S5,9,4.21,8.5A5.8,5.8,0,0,1,2.82,7.35a.64.64,0,0,1,0-.07s0,0,0,0l0,.07h0Zm1.13,1.1C3.1,7.9,2.65,7.51,2.72,7.32h0l.06-.11h0a.17.17,0,0,0,0,.07.14.14,0,0,0,0,.07A5.72,5.72,0,0,0,4.23,8.48c.73.5,1.68,1.1,2.7,1.71s1.75,1,2.46,1.37a12.72,12.72,0,0,0,1.86.81h0a.26.26,0,0,0,.12,0h0a.09.09,0,0,0,.07,0h0s-.06.11-.07.13h0a4.36,4.36,0,0,1-1.68-.61c-.79-.38-1.78-.92-2.84-1.56S4.63,9,3.87,8.43M11,13.13s0,0-.06,0h-.12a6.24,6.24,0,0,1-1.62-.63c-.75-.37-1.68-.88-2.69-1.48-1.18-.71-2.26-1.38-3-1.92S2.26,8.18,2.37,8l.06-.11h0s0,0,0,0c-.17.51,3.14,2.45,3.92,2.92a.61.61,0,0,1,.16.09,27,27,0,0,0,2.93,1.6c.87.4,1.44.58,1.53.47h0v0Zm-.07,0h-.1a7.12,7.12,0,0,1-1.62-.63c-.75-.37-1.68-.88-2.68-1.48-1.18-.71-2.26-1.38-3-1.92S2.29,8.18,2.39,8h0l0-.07c0,.59,3.17,2.45,3.94,2.91l.16.09a29.23,29.23,0,0,0,2.93,1.61,3.7,3.7,0,0,0,1.51.49l0,.06h0l0,0" transform="translate(0 0)"/><path class="cls-5" d="M7,8.46a14.13,14.13,0,0,0,4.45-.63l-.23-.38A12.77,12.77,0,0,1,7,8.07c-2,0-3.47-.21-4.2-.69l-.21.4A10.88,10.88,0,0,0,7,8.46" transform="translate(0 0)"/><path class="cls-5" d="M11.53,7.84a6.81,6.81,0,0,1-1.77.47A17.78,17.78,0,0,1,7,8.51a18.39,18.39,0,0,1-2.64-.16,8,8,0,0,1-1.85-.49l.06-.11a7.65,7.65,0,0,0,1.81.48A19.34,19.34,0,0,0,7,8.4a18.58,18.58,0,0,0,2.73-.2,4.49,4.49,0,0,0,1.72-.49Zm-.21-.39-.07-.12a4.46,4.46,0,0,1-1.64.46A17,17,0,0,1,7,8a18.06,18.06,0,0,1-2.51-.16,6.26,6.26,0,0,1-1.72-.43l-.06.1a7,7,0,0,0,1.76.44A18.5,18.5,0,0,0,7,8.09a17.51,17.51,0,0,0,2.61-.18,5,5,0,0,0,1.69-.46" transform="translate(0 0)"/><path class="cls-6" d="M11.54,7.84h0a2.42,2.42,0,0,1-.68.25c-.29.08-.67.16-1.1.24h0c-.35.05-.76.1-1.21.14s-1,.06-1.54.06-1,0-1.48,0-.83-.07-1.16-.12h0a7.5,7.5,0,0,1-1.83-.48h0s0,0,0,0h0s0,0,0,0l0-.06h0A8.21,8.21,0,0,0,3.46,8a8.49,8.49,0,0,0,.93.19h0c.33,0,.72.09,1.15.12s.92.05,1.46.05,1.08,0,1.53-.07.85-.08,1.2-.13h0A10,10,0,0,0,10.84,8a1.71,1.71,0,0,0,.6-.25h0l.08.13h0m-.69.22a2.57,2.57,0,0,0,.66-.23l-.06-.1a1.87,1.87,0,0,1-.6.24,8.88,8.88,0,0,1-1.11.24h0a11.61,11.61,0,0,1-1.21.14c-.45,0-1,.07-1.53.07s-1,0-1.46-.05-.82-.08-1.15-.12h0a8,8,0,0,1-.93-.19,7.54,7.54,0,0,1-.88-.29l0,.05,0,0h0a7.51,7.51,0,0,0,1.82.48q.51.08,1.17.12c.43,0,.93.05,1.47.05s1.08,0,1.53-.06.86-.09,1.21-.14a10,10,0,0,0,1.1-.24m.48-.59h0s0,0,0,0l-.07-.13h0a2.84,2.84,0,0,1-.68.27,6.59,6.59,0,0,1-1,.19h0c-.33,0-.71.09-1.14.13S7.56,8,7,8s-.93,0-1.33,0-.85-.07-1.18-.12-.73-.13-1-.19a3.24,3.24,0,0,1-.72-.25h0l0,0,0,.05h0s0,0,0,0l.08,0A7.21,7.21,0,0,0,4.49,8h0c.34,0,.74.09,1.2.12s.84,0,1.33,0,1,0,1.46-.06S9.3,8,9.63,7.92a7.14,7.14,0,0,0,1.06-.22,2.31,2.31,0,0,0,.64-.23m-.64.21a2.39,2.39,0,0,0,.61-.23l-.06-.1a2.37,2.37,0,0,1-.67.26,6.6,6.6,0,0,1-1,.2h0c-.33.05-.71.09-1.14.13S7.56,8,7,8,6.09,8,5.69,8s-.85-.07-1.19-.11-.73-.13-1-.19a5.25,5.25,0,0,1-.71-.24s0,0,0,0l0,0,.07,0a6.59,6.59,0,0,0,1.67.42h0C4.84,8,5.24,8,5.69,8s.84,0,1.33,0,1,0,1.46-.06.81-.08,1.15-.12.78-.15,1.06-.22" transform="translate(0 0)"/><path class="cls-5" d="M2.05,10.28a12.89,12.89,0,0,0,5,.77,13.92,13.92,0,0,0,5-.73l0-.5c-.27.42-2.76.83-5,.81A12.07,12.07,0,0,1,2,9.83Z" transform="translate(0 0)"/><path class="cls-5" d="M12,10.21v.12a5.44,5.44,0,0,1-2,.56A20.35,20.35,0,0,1,7,11.1a19.68,19.68,0,0,1-2.9-.2A7.15,7.15,0,0,1,2,10.34V10.2a7.5,7.5,0,0,0,2.09.59A19.63,19.63,0,0,0,7,11,20,20,0,0,0,10,10.78a6.53,6.53,0,0,0,2-.57m0-.42a6.3,6.3,0,0,1-2,.56,19.91,19.91,0,0,1-3,.21,18.39,18.39,0,0,1-2.9-.2A7.17,7.17,0,0,1,2,9.77v.14a7.15,7.15,0,0,0,2.08.56,18.43,18.43,0,0,0,2.91.2A20.31,20.31,0,0,0,10,10.46a5.52,5.52,0,0,0,2-.55Z" transform="translate(0 0)"/><path class="cls-6" d="M12,10.21v.12h0a1.75,1.75,0,0,1-.67.28A11.21,11.21,0,0,1,10,10.9c-.42.07-.9.12-1.45.16s-1,0-1.62,0-1.07,0-1.53,0-1-.09-1.38-.15h0a10.57,10.57,0,0,1-1.18-.24,4.68,4.68,0,0,1-.9-.32H2V10.2l0,0H2a2.77,2.77,0,0,0,.76.31,13,13,0,0,0,1.33.28c.39.06.84.12,1.37.15S6.42,11,7,11s1.13,0,1.61-.05,1-.09,1.44-.16a8.11,8.11,0,0,0,1.24-.27A2.35,2.35,0,0,0,12,10.2h0m0,.12v-.09a2.63,2.63,0,0,1-.73.28,9.31,9.31,0,0,1-1.25.27h0c-.41.06-.89.12-1.44.16S7.56,11,7,11,5.91,11,5.45,11s-1-.09-1.37-.15a12.93,12.93,0,0,1-1.32-.28,3.53,3.53,0,0,1-.76-.3v.11a5.44,5.44,0,0,0,.89.31,8.39,8.39,0,0,0,1.18.24h0c.4.06.85.12,1.38.15s1,.05,1.52.05,1.13,0,1.62-.05,1-.09,1.45-.16a11,11,0,0,0,1.3-.28,1.85,1.85,0,0,0,.66-.26m0-.54h0a2.62,2.62,0,0,1-.74.29,11.5,11.5,0,0,1-1.24.27h0c-.41.06-.89.12-1.44.15s-1,.06-1.61.06-1.06,0-1.51-.05-1-.09-1.37-.15a13,13,0,0,1-1.33-.28A2.77,2.77,0,0,1,2,9.76H2v.14H2a4.36,4.36,0,0,0,.91.33c.32.08.71.17,1.17.24s.86.11,1.39.15,1,0,1.52,0,1.13,0,1.62-.06,1-.09,1.45-.15a13.1,13.1,0,0,0,1.31-.28A1.75,1.75,0,0,0,12,9.92h0Zm0,.11V9.82a3.48,3.48,0,0,1-.73.28,11.16,11.16,0,0,1-1.25.27c-.41.06-.89.12-1.44.15s-1,.06-1.61.06-1.06,0-1.52-.05-1-.09-1.37-.15c-.25-.05-.82-.15-1.32-.29A3.1,3.1,0,0,1,2,9.8v.1a4.33,4.33,0,0,0,.89.32c.32.08.72.17,1.18.24h0c.4.06.85.11,1.38.15s1,.05,1.52.05,1.13,0,1.62-.05,1-.1,1.45-.16a11.68,11.68,0,0,0,1.31-.28A1.81,1.81,0,0,0,12,9.9" transform="translate(0 0)"/><path class="cls-5" d="M7,13a17.38,17.38,0,0,1-4.35-.68l.28.44A11.55,11.55,0,0,0,7,13.45a10.48,10.48,0,0,0,4.05-.66l.29-.46A15.65,15.65,0,0,1,7,13" transform="translate(0 0)"/><path class="cls-5" d="M11.17,12.69c0,.06-.09.12-.13.19a12.31,12.31,0,0,1-1.53.39A14,14,0,0,1,7,13.5a12,12,0,0,1-4.18-.72l-.06-.1h0l.1,0A13.5,13.5,0,0,0,7,13.39a14.1,14.1,0,0,0,2.46-.23,7.65,7.65,0,0,0,1.66-.45Zm.25-.42-.13.05h0a12.67,12.67,0,0,1-1.93.43A17.08,17.08,0,0,1,7,13a18.83,18.83,0,0,1-4.47-.66l.05.11A16.19,16.19,0,0,0,7,13.07a15.82,15.82,0,0,0,2.37-.2,10.52,10.52,0,0,0,1.93-.43l.1-.16h0" transform="translate(0 0)"/><path class="cls-6" d="M11.18,12.69a.36.36,0,0,1-.07.1l-.06.1h0c-.21.08-.48.15-.73.22a7.94,7.94,0,0,1-.8.17,10.48,10.48,0,0,1-1.2.17c-.43,0-.88.06-1.31.06H7a15.25,15.25,0,0,1-2.29-.2,9.72,9.72,0,0,1-1.89-.51h0l-.06-.1h0v0h0l.1,0a11.74,11.74,0,0,0,1.9.48,16.8,16.8,0,0,0,2.23.2H7a11.71,11.71,0,0,0,1.19-.06c.46,0,.89-.1,1.27-.17s.79-.17,1-.24a2.79,2.79,0,0,0,.62-.22l0,0h0m-.09.09a.21.21,0,0,1,0-.06,2.93,2.93,0,0,1-.61.21c-.25.07-.6.16-1,.25h0c-.38.06-.81.13-1.26.17A11.91,11.91,0,0,1,7,13.4a14,14,0,0,1-2.23-.2,10.08,10.08,0,0,1-1.91-.48h0l-.09,0,.05.09a8.9,8.9,0,0,0,1.87.5,16.74,16.74,0,0,0,2.3.21c.42,0,.88,0,1.31-.07a10.67,10.67,0,0,0,1.2-.16h0l.79-.18c.25-.06.52-.14.73-.21l.06-.09m.34-.52h0l-.12.05h0a10.7,10.7,0,0,1-1.9.42l-.2,0A16.64,16.64,0,0,1,7,13a18.74,18.74,0,0,1-2.3-.2,22,22,0,0,1-2.17-.46h0v0l.06.11h0A13.46,13.46,0,0,0,4,12.78a18.9,18.9,0,0,0,3,.3H7a13.54,13.54,0,0,0,2.1-.16l.27,0a9.84,9.84,0,0,0,1.06-.19,5.89,5.89,0,0,0,.88-.24h0a.22.22,0,0,1,.05-.08l0-.09s0,0,0,0h0m-.07.09,0,0-.08,0h0a12.12,12.12,0,0,1-1.9.42h0l-.21,0A15,15,0,0,1,7,13H7a17.14,17.14,0,0,1-2.31-.19c-.73-.12-1.44-.27-2.14-.45l0,.07A12,12,0,0,0,4,12.75a18.45,18.45,0,0,0,3,.31,13,13,0,0,0,2.09-.17l.28,0c.41-.06.76-.13,1-.19s.72-.19.87-.24a.35.35,0,0,0,0-.08" transform="translate(0 0)"/><path class="cls-5" d="M11.44,9.89a4.72,4.72,0,0,1-1.29,3.22A4.63,4.63,0,0,1,7,14.43a4.71,4.71,0,0,1-3.11-1.3A4.76,4.76,0,0,1,2.57,10,4.45,4.45,0,0,1,4.13,6.63a4.69,4.69,0,0,1,3-1.07,4.59,4.59,0,0,1,3.32,1.67,4.62,4.62,0,0,1,1,2.66M7,5.07A4.94,4.94,0,1,0,12,10,5,5,0,0,0,7,5.07" transform="translate(0 0)"/><path class="cls-6" d="M7,5A5,5,0,1,1,3.49,6.5,4.95,4.95,0,0,1,7,5m3.48,1.48A4.93,4.93,0,1,0,11.93,10a4.91,4.91,0,0,0-1.45-3.49M7,5.15a4.86,4.86,0,1,0,3.43,8.29A4.86,4.86,0,0,0,7,5.15M10.4,6.6A4.8,4.8,0,1,0,11.82,10,4.78,4.78,0,0,0,10.4,6.6" transform="translate(0 0)"/><path class="cls-6" d="M7,5.45A4.54,4.54,0,1,1,2.45,10,4.58,4.58,0,0,1,7,5.45m3.19,1.36A4.49,4.49,0,1,0,11.52,10a4.51,4.51,0,0,0-1.33-3.19M7,5.56a4.44,4.44,0,0,0,0,8.88A4.44,4.44,0,0,0,7,5.56m3.12,1.33A4.41,4.41,0,1,0,11.41,10a4.42,4.42,0,0,0-1.29-3.11" transform="translate(0 0)"/><polygon class="cls-5" points="7.16 4.98 7.16 5.03 6.85 5.03 6.85 4.98 6.74 4.98 6.74 15.04 6.85 15.04 6.85 14.99 7.16 14.99 7.16 15.04 7.27 15.04 7.27 4.98 7.16 4.98"/><path class="cls-6" d="M7.16,5h.11s0,0,0,0h0V15s0,0,0,0H7.16s0,0,0,0h0V5s0,0,0,0m.09,0H7.17V15h.07ZM6.74,5h.11s0,0,0,0h0V15s0,0,0,0H6.74s0,0,0,0h0V5a0,0,0,0,1,0,0m.09,0H6.75V15h.08Z" transform="translate(0 0)"/><path class="cls-5" d="M2,9.79c.62-.57,2.91-.94,4.94-.93s4.44.43,5,.92v.43C11.5,9.8,9.63,9.3,7,9.3s-4.59.5-5,.92Z" transform="translate(0 0)"/><path class="cls-5" d="M7,9.24a17.81,17.81,0,0,1,3.2.28A3.78,3.78,0,0,1,12,10.2v.13a4.07,4.07,0,0,0-1.83-.7A17.57,17.57,0,0,0,7,9.35a17.64,17.64,0,0,0-3.25.29c-.7.14-1.65.42-1.76.69V10.2c.06-.19.76-.48,1.75-.67A16.92,16.92,0,0,1,7,9.24m0-.43a18.68,18.68,0,0,0-3.26.29A3.35,3.35,0,0,0,2,9.77v.14c.11-.28,1.09-.57,1.77-.69A16.7,16.7,0,0,1,7,8.93a16.71,16.71,0,0,1,3.18.28,3.85,3.85,0,0,1,1.83.7V9.78A3.78,3.78,0,0,0,10.2,9.1,16.8,16.8,0,0,0,7,8.81" transform="translate(0 0)"/><path class="cls-6" d="M7,9.22c.57,0,1.13,0,1.66.08s1.08.12,1.55.21a8.09,8.09,0,0,1,1.18.32,1.55,1.55,0,0,1,.63.36h0v.13s0,0,0,0h0a1.69,1.69,0,0,0-.62-.37,7.34,7.34,0,0,0-1.2-.32,15.13,15.13,0,0,0-1.54-.21c-.52,0-1.08-.08-1.64-.08s-1.16,0-1.69.08-1.1.13-1.56.21A7.69,7.69,0,0,0,2.54,10c-.28.11-.49.23-.54.35H2V10.2H2c0-.1.24-.22.56-.35a9.36,9.36,0,0,1,1.2-.33h0A15.18,15.18,0,0,1,5.29,9.3C5.83,9.25,6.4,9.23,7,9.22m1.65.11C8.13,9.28,7.57,9.25,7,9.25s-1.17,0-1.71.08a15,15,0,0,0-1.55.21,7.64,7.64,0,0,0-1.2.33c-.31.12-.51.24-.54.33v.08A1.22,1.22,0,0,1,2.52,10a7,7,0,0,1,1.23-.34A14.44,14.44,0,0,1,5.3,9.41c.54-.05,1.11-.07,1.7-.07s1.12,0,1.65.07a15.53,15.53,0,0,1,1.54.21,8.54,8.54,0,0,1,1.2.33,1.53,1.53,0,0,1,.6.35v-.09a1.51,1.51,0,0,0-.62-.35,7,7,0,0,0-1.18-.32,15.35,15.35,0,0,0-1.55-.21M7,8.8c-.6,0-1.17,0-1.71.08a15.18,15.18,0,0,0-1.56.21,7.05,7.05,0,0,0-1.19.33c-.32.12-.53.25-.57.35H2v.14H2a1.08,1.08,0,0,1,.54-.34,6.5,6.5,0,0,1,1.22-.34h0A15,15,0,0,1,5.31,9c.53,0,1.1-.08,1.69-.08S8.12,9,8.64,9a15.13,15.13,0,0,1,1.54.21,8.54,8.54,0,0,1,1.2.33,1.69,1.69,0,0,1,.62.37h0V9.78h0a1.67,1.67,0,0,0-.63-.37,8.21,8.21,0,0,0-1.18-.31,15.62,15.62,0,0,0-1.55-.22C8.13,8.83,7.57,8.8,7,8.8m1.65.1C8.13,8.85,7.57,8.83,7,8.83s-1.17,0-1.71.07S4.2,9,3.74,9.12a8.26,8.26,0,0,0-1.19.32c-.31.12-.51.24-.55.34v.07a1.43,1.43,0,0,1,.53-.31A7.36,7.36,0,0,1,3.75,9.2h0A14.6,14.6,0,0,1,5.31,9c.53-.05,1.1-.08,1.69-.08s1.12,0,1.65.07a15.4,15.4,0,0,1,1.54.22,7.34,7.34,0,0,1,1.2.32,1.81,1.81,0,0,1,.61.35V9.78a1.63,1.63,0,0,0-.62-.35,9.12,9.12,0,0,0-1.18-.32A15.35,15.35,0,0,0,8.65,8.9" transform="translate(0 0)"/><path class="cls-5" d="M7,6.65a10.74,10.74,0,0,1,4.18.63l.27.47A10.54,10.54,0,0,0,7,7.1a11.17,11.17,0,0,0-4.41.67l.32-.54A11.38,11.38,0,0,1,7,6.65" transform="translate(0 0)"/><path class="cls-6" d="M11.2,7.37a0,0,0,0,1,0,0h0l.18.29s0,0,0,0h0Z" transform="translate(0 0)"/><path class="cls-5" d="M7,7a17.74,17.74,0,0,1,2.88.2,5,5,0,0,1,1.57.47l.08.14a5.47,5.47,0,0,0-1.67-.5A16.44,16.44,0,0,0,7,7.14a16.71,16.71,0,0,0-2.9.2,5.22,5.22,0,0,0-1.56.49l.08-.15a5.5,5.5,0,0,1,1.46-.45A17.35,17.35,0,0,1,7,7m0-.42a16.25,16.25,0,0,0-2.8.2,5.14,5.14,0,0,0-1.27.38l-.1.16a4.51,4.51,0,0,1,1.38-.43A16.2,16.2,0,0,1,7,6.72a17,17,0,0,1,2.73.19,3.8,3.8,0,0,1,1.59.54l-.11-.18A4.43,4.43,0,0,0,9.77,6.8,15.45,15.45,0,0,0,7,6.61" transform="translate(0 0)"/><path class="cls-6" d="M7,7c.55,0,1.08,0,1.58.05a11.66,11.66,0,0,1,1.3.15c.38.07.75.16,1,.24a1.8,1.8,0,0,1,.55.23h0l.08.14s0,0,0,0h0a2.43,2.43,0,0,0-.62-.25,10.28,10.28,0,0,0-1-.24A10.26,10.26,0,0,0,8.52,7.2c-.48,0-1,0-1.52,0s-1.12,0-1.6,0-.9.09-1.3.16h0a6.76,6.76,0,0,0-.93.22,2.52,2.52,0,0,0-.62.26h0v0l.08-.15h0a3.18,3.18,0,0,1,.56-.23,5.8,5.8,0,0,1,.91-.22,10.31,10.31,0,0,1,1.33-.16c.48,0,1,0,1.59,0m1.58.08c-.5,0-1-.06-1.58,0s-1.11,0-1.59,0a10.31,10.31,0,0,0-1.33.16,5.64,5.64,0,0,0-.9.22,3.47,3.47,0,0,0-.55.22l0,.1a2.61,2.61,0,0,1,.58-.23,8.11,8.11,0,0,1,.94-.23h0a11.39,11.39,0,0,1,1.3-.15c.48,0,1,0,1.6,0s1,0,1.52,0a10.05,10.05,0,0,1,1.34.16c.4.07.76.16,1.05.24a2.89,2.89,0,0,1,.58.23l-.05-.09a1.64,1.64,0,0,0-.54-.22c-.28-.08-.65-.17-1-.24A11.47,11.47,0,0,0,8.58,7.1M7,6.59c-.54,0-1.07,0-1.55.06a10.9,10.9,0,0,0-1.26.15h0A5.36,5.36,0,0,0,3.45,7a3.12,3.12,0,0,0-.53.2h0l-.1.15s0,0,0,0h0a2.2,2.2,0,0,1,.53-.22,7.22,7.22,0,0,1,.85-.2c.37-.07.79-.12,1.24-.16s1,0,1.54,0,1,0,1.45,0,.89.08,1.27.14a9.48,9.48,0,0,1,1,.26,1.39,1.39,0,0,1,.54.28h0v0l-.12-.19h0A2.22,2.22,0,0,0,10.67,7a8.91,8.91,0,0,0-.89-.22,11,11,0,0,0-1.25-.15c-.48,0-1,0-1.53,0m1.53.08c-.49,0-1,0-1.53,0s-1.07,0-1.55.06a10.46,10.46,0,0,0-1.25.15h0A7.53,7.53,0,0,0,3.46,7a3.47,3.47,0,0,0-.52.21l-.07.09a3.37,3.37,0,0,1,.49-.19,7.22,7.22,0,0,1,.85-.2,10.46,10.46,0,0,1,1.25-.15c.48,0,1-.06,1.54-.06s1,0,1.45,0a11.56,11.56,0,0,1,1.28.15,7.69,7.69,0,0,1,1,.25,2,2,0,0,1,.48.23l-.06-.1A2.16,2.16,0,0,0,10.66,7a8.18,8.18,0,0,0-.89-.23C9.4,6.75,9,6.7,8.53,6.67" transform="translate(0 0)"/><path class="cls-5" d="M9.46,12.06A12.63,12.63,0,0,0,7,11.88c-3.07,0-4.06.63-4.18.81l-.23-.38A8.32,8.32,0,0,1,7,11.46a15.28,15.28,0,0,1,2.65.23Z" transform="translate(0 0)"/><path class="cls-5" d="M7,11.82a15.72,15.72,0,0,1,2.5.2l-.06.1A13.32,13.32,0,0,0,7,11.94a12,12,0,0,0-3.27.38c-.32.09-.84.29-.89.46l-.06-.1c0-.1.33-.3.92-.47A12.24,12.24,0,0,1,7,11.82m0-.43a13,13,0,0,0-3.46.41c-.48.14-1,.35-1,.51l.06.1c0-.18.63-.4,1-.5A12.41,12.41,0,0,1,7,11.51a14.41,14.41,0,0,1,2.62.22l.06-.1A15.29,15.29,0,0,0,7,11.39" transform="translate(0 0)"/><path class="cls-6" d="M7,11.81H7c.43,0,.85,0,1.27,0A10.24,10.24,0,0,1,9.49,12v0h0l-.06.1h0A10.48,10.48,0,0,0,8.26,12c-.41,0-.83,0-1.28,0A14.71,14.71,0,0,0,5.22,12a10.34,10.34,0,0,0-1.51.29h0a3.28,3.28,0,0,0-.61.23.58.58,0,0,0-.27.21h0l-.06-.1h0c0-.06.11-.15.3-.24a3.5,3.5,0,0,1,.63-.24,9.22,9.22,0,0,1,1.67-.31A15,15,0,0,1,7,11.81Zm1.27.08c-.42,0-.84-.05-1.27-.05s-1.08,0-1.63.07a9.6,9.6,0,0,0-1.67.32,3,3,0,0,0-.62.23c-.18.09-.27.17-.28.22l0,.07a.63.63,0,0,1,.27-.21,3.79,3.79,0,0,1,.61-.23h0A10.22,10.22,0,0,1,5.22,12,17.14,17.14,0,0,1,7,11.92c.45,0,.87,0,1.28,0a10.48,10.48,0,0,1,1.16.15l0-.08a9.74,9.74,0,0,0-1.21-.14M7,11.38H7a17.34,17.34,0,0,0-1.75.08,10.77,10.77,0,0,0-1.71.33,4.08,4.08,0,0,0-.75.27c-.16.08-.27.17-.28.25h0l.06.11h0s0,0,0,0,.11-.14.26-.22a4.12,4.12,0,0,1,.71-.27,9.63,9.63,0,0,1,1.7-.32A17,17,0,0,1,7,11.52c.52,0,1,0,1.4.06a11.75,11.75,0,0,1,1.21.17h0l.06-.11h0s0,0,0,0a12.14,12.14,0,0,0-1.35-.17c-.45,0-.9,0-1.34-.06m1.34.08c-.45,0-.9,0-1.34-.05a17,17,0,0,0-1.74.08,9.57,9.57,0,0,0-1.71.32,4.79,4.79,0,0,0-.74.28c-.16.07-.26.15-.27.21l0,.08a.52.52,0,0,1,.27-.21,4.46,4.46,0,0,1,.71-.27,10.77,10.77,0,0,1,1.71-.33A17,17,0,0,1,7,11.49c.52,0,1,0,1.4.06a11.75,11.75,0,0,1,1.21.17l0-.08a11.81,11.81,0,0,0-1.33-.18" transform="translate(0 0)"/><path class="cls-5" d="M2.85,7.23c1.52,0,8.54,4.29,8.56,5.08L11,13c-.2-.92-7.32-5.12-8.5-5Z" transform="translate(0 0)"/><path class="cls-6" d="M2.82,7.26h0s0,0,0,0l-.34.64h0s0,0,0,0Z" transform="translate(0 0)"/><path class="cls-5" d="M2.44,7.92c.28-.2,2.35.73,4.52,2S11.2,12.75,11,13l-.06.1,0,0s0,0,0-.15c-.09-.3-1.56-1.47-4-2.94S2.57,7.79,2.37,8Zm9,4.44c.18-.35-1.75-1.8-4.13-3.21s-4.2-2.2-4.52-2l-.08.13,0,0a.33.33,0,0,1,.2,0,15.6,15.6,0,0,1,4.35,2c1,.57,4.1,2.58,4.09,3.14,0,0,0,.06,0,.08Z" transform="translate(0 0)"/><path class="cls-6" d="M2.43,7.9c.14-.1.75.09,1.59.47A28.54,28.54,0,0,1,7,9.94c.63.39,1.26.79,1.82,1.16a20.43,20.43,0,0,1,1.67,1.23c.41.34.63.6.56.71h0l-.06.09h0l0,0,0,0h0s0,0,0-.05a.13.13,0,0,0,0-.08h0a4.42,4.42,0,0,0-1.28-1.15C9,11.36,8,10.75,6.92,10.07a31.72,31.72,0,0,0-3-1.61C3,8.09,2.48,7.93,2.39,8h0l.06-.12h0ZM4,8.4C3.18,8,2.59,7.84,2.45,7.93l0,.06a3.46,3.46,0,0,1,1.48.44,28.92,28.92,0,0,1,3,1.62c1.12.67,2,1.29,2.71,1.78A4.62,4.62,0,0,1,10.93,13a.18.18,0,0,1,0,.09h0L11,13h0c.06-.09-.16-.34-.56-.67a18.48,18.48,0,0,0-1.67-1.22C8.21,10.75,7.59,10.35,7,10A29.6,29.6,0,0,0,4,8.4m7.44,3.95c.07-.16-.34-.59-1-1.14A30.88,30.88,0,0,0,7.32,9.16,34.83,34.83,0,0,0,4.18,7.54C3.45,7.22,3,7.09,2.82,7.2l0,.06a.5.5,0,0,1,.16,0H3a4.92,4.92,0,0,1,1.56.53c.74.34,1.69.84,2.8,1.48a31.52,31.52,0,0,1,3,2c.64.48,1.11.92,1.11,1.15h0l0-.06Zm-1-1.17a31.75,31.75,0,0,0-3.09-2h0C6.07,8.42,5,7.85,4.19,7.51S3,7.06,2.8,7.18h0l-.07.13h0s0,0,0,0h0v0h0a.3.3,0,0,1,.18,0H3A4.89,4.89,0,0,1,4.5,7.8c.74.34,1.69.84,2.79,1.47a32.2,32.2,0,0,1,3,2c.63.48,1.1.92,1.1,1.13h0v0s0,0,0,0h0l0,0h0l.06-.09h0v0c.09-.18-.32-.62-1.05-1.19" transform="translate(0 0)"/><path class="cls-7" d="M4,10.55a3,3,0,0,0,3,3,3,3,0,0,0,2.1-.87,3,3,0,0,0,.87-2.1h0v-4H4Z" transform="translate(0 0)"/><path class="cls-7" d="M4,10.55a3,3,0,0,0,3,3,3,3,0,0,0,2.1-.87,3,3,0,0,0,.87-2.1v-4H4Z" transform="translate(0 0)"/><path class="cls-6" d="M4.05,10.55a2.89,2.89,0,0,0,.87,2.08,3,3,0,0,0,1,.64A2.77,2.77,0,0,0,7,13.5a3,3,0,0,0,1.13-.22,3,3,0,0,0,1.6-1.6A3,3,0,0,0,10,10.55V6.61H4.05Zm.19,1.13A3,3,0,0,1,4,10.55H4v-4h6v4a2.87,2.87,0,0,1-.23,1.14,2.9,2.9,0,0,1-.65,1,3.18,3.18,0,0,1-1,.65A3.08,3.08,0,0,1,7,13.53a3,3,0,0,1-1.13-.22,3.13,3.13,0,0,1-1-.66,3.06,3.06,0,0,1-.65-1" transform="translate(0 0)"/><path class="cls-3" d="M4.14,10.56h0A2.85,2.85,0,0,0,7,13.39a2.85,2.85,0,0,0,2.85-2.83V6.72H4.15ZM8.69,7.87v2.7a1.41,1.41,0,0,1,0,.21,1.64,1.64,0,0,1-.49,1,1.67,1.67,0,0,1-1.2.5A1.72,1.72,0,0,1,5.3,10.56V7.86H8.69Z" transform="translate(0 0)"/><path class="cls-6" d="M4.16,10.56h0a2.72,2.72,0,0,0,.21,1.07,2.93,2.93,0,0,0,.62.92,3,3,0,0,0,.92.62A3,3,0,0,0,7,13.38a2.82,2.82,0,0,0,1.09-.21A3,3,0,0,0,9,12.55a2.68,2.68,0,0,0,.62-.91,2.78,2.78,0,0,0,.22-1.08V6.73H4.16Zm0,0h0V6.72H9.85v3.84a2.83,2.83,0,0,1-.22,1.09,2.62,2.62,0,0,1-.62.92,2.84,2.84,0,0,1-2,.84,2.78,2.78,0,0,1-1.08-.22A3,3,0,0,1,5,12.57a3.09,3.09,0,0,1-.62-.93,2.78,2.78,0,0,1-.22-1.08M8.71,7.87v2.7s0,.07,0,.11a.41.41,0,0,1,0,.11,1.55,1.55,0,0,1-.15.53,1.89,1.89,0,0,1-.34.46,1.62,1.62,0,0,1-.55.37,1.8,1.8,0,0,1-.66.13,1.7,1.7,0,0,1-.64-.13,1.79,1.79,0,0,1-.56-.38,1.61,1.61,0,0,1-.37-.56,1.57,1.57,0,0,1-.13-.65V7.86H8.71Zm0,2.44v.37a.34.34,0,0,0,0,.1,1.56,1.56,0,0,1-.16.53,1.45,1.45,0,0,1-.33.45,1.68,1.68,0,0,1-.54.37,1.75,1.75,0,0,1-.65.12,1.48,1.48,0,0,1-.63-.13,1.57,1.57,0,0,1-.55-.37,1.64,1.64,0,0,1-.5-1.19V7.88H8.68Z" transform="translate(0 0)"/><path class="cls-8" d="M6.64,10.12h0a.44.44,0,0,0,.11.29.35.35,0,0,0,.26.11.39.39,0,0,0,.27-.11.49.49,0,0,0,.11-.29V9.58H6.64Z" transform="translate(0 0)"/><path class="cls-8" d="M6.63,11.41h0a.39.39,0,0,0,.11.28.34.34,0,0,0,.27.12.36.36,0,0,0,.26-.11.44.44,0,0,0,.11-.29v-.54H6.63Z" transform="translate(0 0)"/><path class="cls-8" d="M5.6,10.12h0a.44.44,0,0,0,.11.29.36.36,0,0,0,.26.12.4.4,0,0,0,.27-.12.47.47,0,0,0,.11-.29V9.59H5.6Z" transform="translate(0 0)"/><path class="cls-8" d="M7.67,10.12h0a.44.44,0,0,0,.11.29.38.38,0,0,0,.27.12.36.36,0,0,0,.26-.12.42.42,0,0,0,.11-.29V9.59H7.67Z" transform="translate(0 0)"/><path class="cls-8" d="M6.64,8.82h0a.39.39,0,0,0,.11.28A.32.32,0,0,0,7,9.22a.36.36,0,0,0,.27-.12.44.44,0,0,0,.11-.28V8.28H6.64Z" transform="translate(0 0)"/><polygon class="cls-5" points="5.08 7.08 5.09 7.25 4.88 7.25 4.89 7.08 5.08 7.08"/><path class="cls-5" d="M4.51,7.72a.36.36,0,0,1,.21-.34.35.35,0,0,1,.21.35Z" transform="translate(0 0)"/><path class="cls-5" d="M4.34,7.38l0,.32h.21a.28.28,0,0,1,.2-.3.3.3,0,0,1,.21.3h.2l0-.32Z" transform="translate(0 0)"/><path class="cls-6" d="M4.36,7.4l0,.29H4.5a.25.25,0,0,0,0-.08.28.28,0,0,1,.12-.18l0,0Zm-.06.3,0-.32h.78l0,.32H4.91a.28.28,0,0,0-.1-.23.26.26,0,0,0-.09,0h0l-.08,0a.32.32,0,0,0-.11.25H4.3Zm.45-.3.08,0a.37.37,0,0,1,.11.25h.18l0-.29Z" transform="translate(0 0)"/><path class="cls-5" d="M4.3,7.7h.84a0,0,0,1,1,0,.08H4.3a0,0,0,1,1,0-.08" transform="translate(0 0)"/><path class="cls-6" d="M4.3,7.69h.84s0,0,0,0l0,0a.05.05,0,0,1,0,0H4.26s0,0,0,0v0l0,0m.84,0H4.28v0h.88v0h0" transform="translate(0 0)"/><path class="cls-5" d="M4.6,7.7a.22.22,0,0,1,.12-.21.22.22,0,0,1,.11.21Z" transform="translate(0 0)"/><path class="cls-6" d="M4.59,7.7a.23.23,0,0,1,.12-.22h0a.23.23,0,0,1,.13.22H4.59Zm.13-.2a.2.2,0,0,0-.1.19h.2a.2.2,0,0,0-.1-.19" transform="translate(0 0)"/><path class="cls-5" d="M4.31,7.25h.82a0,0,0,0,1,0,0,0,0,0,0,1,0,0H4.31a0,0,0,0,1,0,0,0,0,0,0,1,0,0" transform="translate(0 0)"/><path class="cls-6" d="M4.31,7.24h.85v0s0,0,0,0l0,0H4.31l0,0a0,0,0,0,1,0,0,.06.06,0,0,1,0,0h0m.82,0H4.3v0h.84v0s0,0,0,0h0" transform="translate(0 0)"/><path class="cls-5" d="M4.33,7.32h.78a0,0,0,0,1,0,0,0,0,0,0,1,0,0H4.33a0,0,0,0,1,0,0s0,0,0,0" transform="translate(0 0)"/><path class="cls-6" d="M4.33,7.31h.78l0,0a.1.1,0,0,1,0,0,0,0,0,0,1,0,0l0,0H4.33l0,0a0,0,0,0,1,0,0s0,0,0,0l0,0m.78,0H4.32s0,0,0,0v0h.8v0h0" transform="translate(0 0)"/><path class="cls-5" d="M4.58,6.79h.06v0h.05v0h.06v0h0v0h.07v.1a0,0,0,0,1,0,0H4.61a0,0,0,0,1,0,0Z" transform="translate(0 0)"/><path class="cls-6" d="M4.58,6.78h.08v0h0v0h.08v0h0v0h.09v.1s0,0,0,0H4.58s0,0,0,0v-.1h0Zm0,0h0v.08h.26V6.81h0v0H4.74v0h0v0H4.63Z" transform="translate(0 0)"/><polygon class="cls-5" points="4.81 6.93 4.83 7.25 4.61 7.25 4.63 6.93 4.81 6.93"/><path class="cls-6" d="M4.82,6.93l0,.32H4.6V6.93h.21Zm0,.31v-.3H4.64l0,.3Z" transform="translate(0 0)"/><path class="cls-5" d="M4.85,7h.06V7H5V7H5V7h0V7h.06v.1a0,0,0,0,1,0,0H4.88a0,0,0,0,1,0,0Z" transform="translate(0 0)"/><path class="cls-6" d="M5.09,7.08v.17H4.87V7.08h.22Zm0,.16V7.09H4.9v.15Z" transform="translate(0 0)"/><path class="cls-6" d="M4.85,6.94h.07V7h0V7H5V7H5V7h.09v.1a0,0,0,0,1,0,0H4.85a0,0,0,0,1,0,0V7h0ZM4.9,7h0v.09h.23a0,0,0,0,0,0,0h0V7h0V7H5V7H5V7H4.9Z" transform="translate(0 0)"/><path class="cls-5" d="M4.32,7h.06V7h0V7h.06V7h0V7h.06v.1a0,0,0,0,1,0,0H4.35a0,0,0,0,1,0,0Z" transform="translate(0 0)"/><path class="cls-6" d="M4.32,6.94h.07V7h0V7H4.5V7h0V7H4.6v.1a0,0,0,0,1,0,0H4.32a0,0,0,0,1,0,0V7h0Zm0,0h0v.08h.25V7h0V7H4.47V7h0V7H4.37Z" transform="translate(0 0)"/><polygon class="cls-5" points="4.55 7.08 4.56 7.25 4.35 7.25 4.36 7.08 4.55 7.08"/><path class="cls-6" d="M4.56,7.08v.17H4.34V7.08h.22Zm0,.16V7.09H4.37v.15Z" transform="translate(0 0)"/><path class="cls-6" d="M4.7,7a0,0,0,1,1,0,0v.08h0Z" transform="translate(0 0)"/><path class="cls-6" d="M5,7.14a0,0,0,0,1,0,0V7.2H5Z" transform="translate(0 0)"/><path class="cls-6" d="M4.43,7.14a0,0,0,1,1,0,0V7.2h0Z" transform="translate(0 0)"/><path class="cls-7" d="M7.22,11.41a.07.07,0,0,0-.07.07.07.07,0,1,0,.14,0,.07.07,0,0,0-.07-.07" transform="translate(0 0)"/><path class="cls-7" d="M6.81,11.41a.08.08,0,0,0-.08.08.08.08,0,0,0,.08.07.07.07,0,0,0,.07-.07.07.07,0,0,0-.07-.08" transform="translate(0 0)"/><path class="cls-7" d="M7,11.2a.08.08,0,0,0-.07.08.07.07,0,0,0,.07.07.08.08,0,0,0,.08-.07A.09.09,0,0,0,7,11.2" transform="translate(0 0)"/><path class="cls-7" d="M7.22,11a.08.08,0,0,0-.07.08.07.07,0,1,0,.14,0A.08.08,0,0,0,7.22,11" transform="translate(0 0)"/><path class="cls-7" d="M8.26,10.12a.08.08,0,0,0-.07.08.07.07,0,0,0,.14,0,.08.08,0,0,0-.07-.08" transform="translate(0 0)"/><path class="cls-7" d="M7.85,10.12a.08.08,0,0,0-.07.08.07.07,0,0,0,.07.07.08.08,0,0,0,.08-.07.09.09,0,0,0-.08-.08" transform="translate(0 0)"/><path class="cls-7" d="M8.05,9.91A.08.08,0,0,0,8,10a.07.07,0,0,0,.07.07A.08.08,0,0,0,8.13,10a.09.09,0,0,0-.08-.08" transform="translate(0 0)"/><path class="cls-7" d="M8.26,9.72a.07.07,0,1,0,.07.07.07.07,0,0,0-.07-.07" transform="translate(0 0)"/><path class="cls-7" d="M7.85,9.72a.07.07,0,0,0,0,.14.07.07,0,1,0,0-.14" transform="translate(0 0)"/><path class="cls-7" d="M7.22,10.12a.07.07,0,0,0-.07.08.07.07,0,0,0,.07.07.08.08,0,0,0,.08-.07.08.08,0,0,0-.08-.08" transform="translate(0 0)"/><path class="cls-7" d="M6.81,10.12a.08.08,0,0,0-.08.08.08.08,0,0,0,.08.07.07.07,0,0,0,.07-.07.07.07,0,0,0-.07-.08" transform="translate(0 0)"/><path class="cls-7" d="M7,9.91a.08.08,0,0,0-.07.08.07.07,0,0,0,.07.07A.07.07,0,0,0,7.09,10,.08.08,0,0,0,7,9.91" transform="translate(0 0)"/><path class="cls-7" d="M7.22,9.71a.08.08,0,0,0-.07.08.07.07,0,0,0,.07.07.08.08,0,0,0,.08-.07.09.09,0,0,0-.08-.08" transform="translate(0 0)"/><path class="cls-7" d="M6.81,9.71a.09.09,0,0,0-.08.08.08.08,0,0,0,.08.07.07.07,0,0,0,.07-.07.08.08,0,0,0-.07-.08" transform="translate(0 0)"/><path class="cls-7" d="M6.18,10.12a.08.08,0,0,0-.07.08.07.07,0,0,0,.07.07.08.08,0,0,0,.08-.07.09.09,0,0,0-.08-.08" transform="translate(0 0)"/><path class="cls-7" d="M5.78,10.12a.09.09,0,0,0-.08.08.08.08,0,0,0,.08.07.07.07,0,0,0,.07-.07.08.08,0,0,0-.07-.08" transform="translate(0 0)"/><path class="cls-7" d="M6,9.92a.07.07,0,0,0,0,.14.07.07,0,1,0,0-.14" transform="translate(0 0)"/><path class="cls-7" d="M6.18,9.72a.07.07,0,0,0,0,.14.07.07,0,1,0,0-.14" transform="translate(0 0)"/><path class="cls-7" d="M6.81,11a.09.09,0,0,0-.08.08.08.08,0,0,0,.08.07.07.07,0,0,0,.07-.07A.08.08,0,0,0,6.81,11" transform="translate(0 0)"/><path class="cls-5" d="M5.78,9.72a.07.07,0,1,0,0,.14.07.07,0,0,0,0-.14" transform="translate(0 0)"/><path class="cls-7" d="M6.81,8.41a.09.09,0,0,0-.08.08.08.08,0,0,0,.08.07.07.07,0,0,0,.07-.07.08.08,0,0,0-.07-.08" transform="translate(0 0)"/><path class="cls-7" d="M7.21,8.41a.08.08,0,0,0-.07.08.07.07,0,0,0,.07.07.08.08,0,0,0,.08-.07.09.09,0,0,0-.08-.08" transform="translate(0 0)"/><path class="cls-7" d="M7,8.61a.07.07,0,0,0-.08.08A.07.07,0,0,0,7,8.76a.07.07,0,0,0,.07-.07A.07.07,0,0,0,7,8.61" transform="translate(0 0)"/><path class="cls-7" d="M7.21,8.82a.07.07,0,0,0-.07.07A.07.07,0,0,0,7.21,9a.08.08,0,0,0,.08-.08.08.08,0,0,0-.08-.07" transform="translate(0 0)"/><path class="cls-7" d="M6.81,8.82a.08.08,0,0,0-.08.08A.08.08,0,0,0,6.81,9a.07.07,0,0,0,.07-.07.07.07,0,0,0-.07-.08" transform="translate(0 0)"/><path class="cls-7" d="M5.78,9.72a.07.07,0,1,0,0,.14.07.07,0,0,0,0-.14" transform="translate(0 0)"/><polygon class="cls-5" points="7.37 7.08 7.37 7.25 7.17 7.25 7.17 7.08 7.37 7.08"/><path class="cls-5" d="M6.8,7.72A.36.36,0,0,1,7,7.38a.35.35,0,0,1,.21.35Z" transform="translate(0 0)"/><path class="cls-5" d="M6.63,7.39l0,.31h.2A.27.27,0,0,1,7,7.4a.32.32,0,0,1,.2.3h.21l0-.32Z" transform="translate(0 0)"/><path class="cls-6" d="M6.64,7.4l0,.29h.18a.19.19,0,0,1,0-.08.31.31,0,0,1,.11-.18L7,7.4Zm-.06.3,0-.32h.77l0,.32H7.2a.38.38,0,0,0-.1-.23.26.26,0,0,0-.09,0H7l-.07,0a.29.29,0,0,0-.11.16s0,.06,0,.09H6.58ZM7,7.4a.15.15,0,0,1,.07,0,.3.3,0,0,1,.11.24H7.4l0-.29Z" transform="translate(0 0)"/><path class="cls-5" d="M6.58,7.7h.85s0,0,0,0,0,0,0,0H6.58s0,0,0,0,0,0,0,0" transform="translate(0 0)"/><path class="cls-6" d="M6.58,7.69h.85l0,0a0,0,0,0,1,0,0s0,0,0,0H6.55s0,0,0,0a0,0,0,0,1,0,0l0,0Zm.85,0H6.57v0s0,0,0,0h.87s0,0,0,0v0h0" transform="translate(0 0)"/><path class="cls-5" d="M6.89,7.7A.22.22,0,0,1,7,7.49a.22.22,0,0,1,.12.21Z" transform="translate(0 0)"/><path class="cls-6" d="M6.88,7.7A.23.23,0,0,1,7,7.48H7a.23.23,0,0,1,.12.22H6.88ZM7,7.5a.22.22,0,0,0-.1.19h.21A.22.22,0,0,0,7,7.5" transform="translate(0 0)"/><path class="cls-5" d="M6.6,7.25h.81s0,0,0,0a0,0,0,0,1,0,0H6.6a0,0,0,0,1,0,0s0,0,0,0" transform="translate(0 0)"/><path class="cls-6" d="M6.6,7.24h.81l0,0s0,0,0,0a0,0,0,0,1,0,0l0,0H6.6l0,0a0,0,0,0,1,0,0s0,0,0,0l0,0m.81,0H6.59v0h.83v0h0" transform="translate(0 0)"/><path class="cls-5" d="M6.62,7.32h.77s0,0,0,0a0,0,0,0,1,0,0H6.62a0,0,0,0,1,0,0s0,0,0,0" transform="translate(0 0)"/><path class="cls-6" d="M6.62,7.31h.77l0,0a0,0,0,0,1,0,.06l0,0H6.62s0,0,0,0l0,0s0,0,0,0,0,0,0,0m.77,0H6.61s0,0,0,0v0H7.4v0s0,0,0,0h0" transform="translate(0 0)"/><path class="cls-5" d="M6.87,6.79h.06v0H7v0H7v0h0v0h.06V6.9s0,0,0,0H6.9a0,0,0,0,1,0,0Z" transform="translate(0 0)"/><path class="cls-6" d="M6.87,6.78h.07v0H7v0h.09v0h0v0h.09V6.9l0,0H6.87s0,0,0,0v-.1h0Zm0,0h0v.08h.25V6.81h0v0H7v0H7v0H6.92Z" transform="translate(0 0)"/><polygon class="cls-5" points="7.1 6.93 7.11 7.25 6.9 7.25 6.91 6.93 7.1 6.93"/><path class="cls-6" d="M7.11,6.93v.32H6.88l0-.32h.21Zm0,.31v-.3H6.92v.3Z" transform="translate(0 0)"/><path class="cls-5" d="M7.13,7h.06V7h0V7H7.3V7h0V7h.07v.1a0,0,0,0,1,0,0H7.16a0,0,0,0,1,0,0Z" transform="translate(0 0)"/><path class="cls-6" d="M7.38,7.08v.17H7.15V7.08h.22Zm0,.16V7.09H7.18v.15Z" transform="translate(0 0)"/><path class="cls-6" d="M7.13,6.94h.08V7h0V7h.09V7h0V7h.09v.13H7.13V7h0Zm0,0h0v.08h.23a0,0,0,0,1,0,0h0V7h0V7H7.29V7h0V7H7.18Z" transform="translate(0 0)"/><path class="cls-5" d="M6.6,7h.06V7h0V7h.06V7h0V7h.06v.1s0,0,0,0H6.63a0,0,0,0,1,0,0Z" transform="translate(0 0)"/><path class="cls-6" d="M6.6,6.94h.08V7h0V7h.09V7h0V7h.09v.13H6.6V7h0Zm.05,0h0v.08h.24V7h0V7H6.76V7h0V7H6.65Z" transform="translate(0 0)"/><polygon class="cls-5" points="6.83 7.08 6.84 7.25 6.63 7.25 6.64 7.08 6.83 7.08"/><path class="cls-6" d="M6.85,7.08v.17H6.62V7.08h.22Zm0,.16V7.09H6.65v.15Z" transform="translate(0 0)"/><path class="cls-6" d="M7,7A0,0,0,0,1,7,7v.08H7Z" transform="translate(0 0)"/><path class="cls-6" d="M7.25,7.14a0,0,0,1,1,0,0V7.2h0Z" transform="translate(0 0)"/><path class="cls-6" d="M6.72,7.14a0,0,0,1,1,0,0V7.2h0Z" transform="translate(0 0)"/><polygon class="cls-5" points="9.63 7.08 9.63 7.25 9.43 7.25 9.43 7.08 9.63 7.08"/><path class="cls-5" d="M9.06,7.72a.34.34,0,0,1,.2-.34.35.35,0,0,1,.21.35Z" transform="translate(0 0)"/><path class="cls-5" d="M8.89,7.38l0,.32h.2a.27.27,0,0,1,.21-.3.29.29,0,0,1,.2.3h.21l0-.32Z" transform="translate(0 0)"/><path class="cls-6" d="M8.9,7.4l0,.29h.18a.19.19,0,0,1,0-.08.31.31,0,0,1,.11-.18l.06,0Zm-.06.3,0-.32h.77l0,.32H9.46a.35.35,0,0,0-.1-.23.26.26,0,0,0-.09,0h0l-.08,0a.29.29,0,0,0-.11.16s0,.06,0,.09H8.84Zm.46-.3.07,0a.33.33,0,0,1,.11.25h.18l0-.29Z" transform="translate(0 0)"/><path class="cls-5" d="M8.84,7.7h.85s0,0,0,0,0,0,0,0H8.84s0,0,0,0,0,0,0,0" transform="translate(0 0)"/><path class="cls-6" d="M8.84,7.69h.85l0,0a0,0,0,0,1,0,0s0,0,0,0H8.81s0,0,0,0a0,0,0,0,1,0,0l0,0m.85,0H8.83v0s0,0,0,0H9.7s0,0,0,0v0h0" transform="translate(0 0)"/><path class="cls-5" d="M9.15,7.7a.22.22,0,0,1,.11-.21.22.22,0,0,1,.12.21Z" transform="translate(0 0)"/><path class="cls-6" d="M9.14,7.7a.23.23,0,0,1,.12-.22h0a.23.23,0,0,1,.12.22H9.14Zm.12-.2a.22.22,0,0,0-.1.19h.21a.22.22,0,0,0-.11-.19" transform="translate(0 0)"/><path class="cls-5" d="M8.86,7.25h.81s0,0,0,0a0,0,0,0,1,0,0H8.86a0,0,0,0,1,0,0s0,0,0,0" transform="translate(0 0)"/><path class="cls-6" d="M8.86,7.24H9.7a.08.08,0,0,1,0,0l0,0,0,0H8.86l0,0a0,0,0,0,1,0,0,.06.06,0,0,1,0,0h0m.81,0H8.85v0h.84v0h0" transform="translate(0 0)"/><path class="cls-5" d="M8.88,7.32h.77s0,0,0,0a0,0,0,0,1,0,0H8.88a0,0,0,0,1,0,0s0,0,0,0" transform="translate(0 0)"/><path class="cls-6" d="M8.88,7.31h.77s0,0,0,0,0,0,0,0l0,0s0,0,0,0H8.88s0,0,0,0l0,0s0,0,0,0,0,0,0,0m.77,0H8.86v0h.8v0s0,0,0,0h0" transform="translate(0 0)"/><path class="cls-5" d="M9.13,6.79h.06v0h0v0H9.3v0h0v0H9.4v.1a0,0,0,0,1,0,0H9.16a0,0,0,0,1,0,0Z" transform="translate(0 0)"/><path class="cls-6" d="M9.13,6.78H9.2v0h0v0h.09v0h0v0h.09v.1s0,0,0,0H9.13s0,0,0,0v-.1h0Zm0,0h0v.08h.25V6.81h0v0H9.28v0h0v0H9.18Z" transform="translate(0 0)"/><polygon class="cls-5" points="9.36 6.93 9.37 7.25 9.16 7.25 9.17 6.93 9.36 6.93"/><path class="cls-6" d="M9.37,6.93v.32H9.14l0-.32h.21Zm0,.31v-.3H9.18v.3Z" transform="translate(0 0)"/><path class="cls-5" d="M9.39,7h.06V7H9.5V7h.06V7h0V7h.06v.1s0,0,0,0H9.42a0,0,0,0,1,0,0Z" transform="translate(0 0)"/><path class="cls-6" d="M9.64,7.08v.17H9.41V7.08h.22Zm0,.16V7.09H9.44v.15Z" transform="translate(0 0)"/><path class="cls-6" d="M9.39,6.94h.08V7h0V7h.08V7h0V7h.09v.13H9.39V7h0Zm0,0h0v.09h.24V7h0V7H9.55V7h0V7H9.44Z" transform="translate(0 0)"/><path class="cls-5" d="M8.86,7h.06V7H9V7H9V7h0V7h.06v.1s0,0,0,0H8.89a0,0,0,0,1,0,0Z" transform="translate(0 0)"/><path class="cls-6" d="M8.86,6.94h.08V7H9V7H9V7h0V7h.09v.13H8.86V7h0Zm.05,0h0v.08h.24V7h0V7H9V7H9V7H8.91Z" transform="translate(0 0)"/><polygon class="cls-5" points="9.1 7.08 9.1 7.25 8.9 7.25 8.9 7.08 9.1 7.08"/><path class="cls-6" d="M9.11,7.08v.17H8.88V7.08h.22Zm0,.16V7.09H8.91v.15Z" transform="translate(0 0)"/><path class="cls-6" d="M9.24,7a0,0,0,0,1,0,0v.08h0Z" transform="translate(0 0)"/><path class="cls-6" d="M9.51,7.14a0,0,0,1,1,0,0V7.2h0Z" transform="translate(0 0)"/><path class="cls-6" d="M9,7.14a0,0,0,1,1,0,0V7.2H9Z" transform="translate(0 0)"/><polygon class="cls-5" points="9.62 9.39 9.63 9.57 9.42 9.57 9.43 9.39 9.62 9.39"/><path class="cls-5" d="M9.06,10a.33.33,0,0,1,.2-.34.33.33,0,0,1,.21.34Z" transform="translate(0 0)"/><path class="cls-5" d="M8.89,9.7l0,.32h.21a.3.3,0,0,1,.2-.31.31.31,0,0,1,.21.31h.21l0-.32Z" transform="translate(0 0)"/><path class="cls-6" d="M8.9,9.71l0,.3h.18a.19.19,0,0,1,0-.08.34.34,0,0,1,.11-.19l.06,0ZM8.84,10l0-.32h.78l0,.32H9.46v0a.27.27,0,0,0-.1-.22.16.16,0,0,0-.09,0h0l-.07,0a.32.32,0,0,0-.11.17s0,.06,0,.09H8.84Zm.45-.31.08,0a.36.36,0,0,1,.11.24h.18l0-.3Z" transform="translate(0 0)"/><path class="cls-5" d="M8.84,10h.85a0,0,0,0,1,0,.08H8.84s0,0,0,0,0,0,0,0" transform="translate(0 0)"/><path class="cls-6" d="M8.84,10h.88a.06.06,0,0,1,0,0s0,0,0,0l0,0H8.84l0,0s0,0,0,0l0,0h0m.85,0H8.82v0H9.7v0h0" transform="translate(0 0)"/><path class="cls-5" d="M9.15,10a.21.21,0,0,1,.11-.21.21.21,0,0,1,.12.21Z" transform="translate(0 0)"/><path class="cls-6" d="M9.13,10a.23.23,0,0,1,.13-.23h0a.25.25,0,0,1,.12.23H9.13Zm.13-.2a.2.2,0,0,0-.1.19h.21a.22.22,0,0,0-.11-.19" transform="translate(0 0)"/><path class="cls-5" d="M8.86,9.57h.81a0,0,0,0,1,0,0s0,0,0,0H8.86s0,0,0,0a0,0,0,0,1,0,0" transform="translate(0 0)"/><path class="cls-6" d="M8.86,9.56H9.7a0,0,0,0,1,0,0s0,0,0,0H8.83a.05.05,0,0,1,0,0v0h0m.81,0H8.84v0h.83a0,0,0,0,0,0,0s0,0,0,0h0" transform="translate(0 0)"/><path class="cls-5" d="M8.87,9.64h.78s0,0,0,0a0,0,0,0,1,0,0H8.87a0,0,0,0,1,0,0,0,0,0,0,1,0,0" transform="translate(0 0)"/><path class="cls-6" d="M8.87,9.63h.81a0,0,0,0,1,0,0s0,0,0,0H8.84s0,0,0,0v0h0m.78,0H8.86v0h.8s0,0,0,0h0" transform="translate(0 0)"/><path class="cls-5" d="M9.13,9.11h.06v0h0v0h.06v0h.05v0H9.4v.1a0,0,0,0,1,0,0H9.15s0,0,0,0Z" transform="translate(0 0)"/><path class="cls-6" d="M9.12,9.1H9.2v0h0v0h.09v0h0v0h.08v.1a0,0,0,0,1,0,0H9.12V9.11h0Zm.05,0h0v.09h.25V9.12h0v.05H9.28V9.12h0v.05H9.17V9.12Z" transform="translate(0 0)"/><polygon class="cls-5" points="9.36 9.24 9.37 9.57 9.15 9.57 9.17 9.24 9.36 9.24"/><path class="cls-6" d="M9.37,9.24v.33H9.14l0-.33h.2v0Zm0,.32,0-.3H9.18v.3Z" transform="translate(0 0)"/><path class="cls-5" d="M9.39,9.27h.06v0H9.5v0h.06v0h0v0h.06v.1s0,0,0,0H9.42s0,0,0,0Z" transform="translate(0 0)"/><path class="cls-6" d="M9.64,9.39v.18H9.41V9.38h.22Zm0,.17V9.41H9.44v.15Z" transform="translate(0 0)"/><path class="cls-6" d="M9.39,9.26h.07v0h0v0h.09v0h0v0h.08v.1a0,0,0,0,1,0,0H9.42l0,0s0,0,0,0v-.1h0Zm0,0h0v.09h.25V9.28h0v0H9.54v0h0v0H9.44Z" transform="translate(0 0)"/><path class="cls-5" d="M8.86,9.27h.06v0H9v0H9v0h0v0h.06v.1s0,0,0,0H8.89s0,0,0,0Z" transform="translate(0 0)"/><path class="cls-6" d="M8.86,9.26h.07v0H9v0H9v0h0v0h.08v.1a0,0,0,0,1,0,0H8.86a0,0,0,0,1,0,0v-.1h0Zm.05,0h0v.09h.25V9.28h0v.05H9V9.28H9v.05H8.91V9.28Z" transform="translate(0 0)"/><polygon class="cls-5" points="9.09 9.39 9.1 9.57 8.89 9.57 8.9 9.39 9.09 9.39"/><path class="cls-6" d="M9.11,9.39v.18H8.88V9.38h.22Zm0,.17V9.41H8.91v.15Z" transform="translate(0 0)"/><path class="cls-6" d="M9.24,9.35a0,0,0,1,1,0,0v.07h0Z" transform="translate(0 0)"/><path class="cls-6" d="M9.51,9.46a0,0,0,1,1,0,0v.06h0Z" transform="translate(0 0)"/><path class="cls-6" d="M9,9.46a0,0,0,1,1,0,0v.06H9Z" transform="translate(0 0)"/><polygon class="cls-5" points="5.08 9.39 5.09 9.57 4.88 9.57 4.89 9.39 5.08 9.39"/><path class="cls-5" d="M4.51,10a.34.34,0,0,1,.21-.34.33.33,0,0,1,.21.34Z" transform="translate(0 0)"/><path class="cls-5" d="M4.34,9.7l0,.32h.21a.3.3,0,0,1,.2-.31.31.31,0,0,1,.21.31h.2l0-.32Z" transform="translate(0 0)"/><path class="cls-6" d="M4.36,9.71l0,.3h.19V9.93a.3.3,0,0,1,.12-.19l0,0ZM4.3,10l0-.32h.78l0,.32H4.91v0a.27.27,0,0,0-.1-.22.2.2,0,0,0-.09,0h0l-.08,0a.31.31,0,0,0-.1.17.28.28,0,0,0,0,.09H4.3Zm.45-.31.08,0a.36.36,0,0,1,.11.24h.18l0-.3Z" transform="translate(0 0)"/><path class="cls-5" d="M4.3,10h.84a0,0,0,0,1,0,.08H4.3a0,0,0,0,1,0-.08" transform="translate(0 0)"/><path class="cls-6" d="M4.3,10h.88v.07l0,0H4.3l0,0V10h0m.84,0H4.28v0h.88v0h0" transform="translate(0 0)"/><path class="cls-5" d="M4.6,10a.21.21,0,0,1,.12-.21.22.22,0,0,1,.12.21Z" transform="translate(0 0)"/><path class="cls-6" d="M4.59,10a.24.24,0,0,1,.12-.23h0a.25.25,0,0,1,.13.23H4.59Zm.13-.2a.2.2,0,0,0-.1.19h.2a.2.2,0,0,0-.1-.19" transform="translate(0 0)"/><path class="cls-5" d="M4.31,9.57h.82l0,0a0,0,0,0,1,0,0H4.31a0,0,0,0,1,0,0l0,0" transform="translate(0 0)"/><path class="cls-6" d="M4.31,9.56h.85a0,0,0,0,1,0,0s0,0,0,0H4.28s0,0,0,0a0,0,0,0,1,0,0h0m.82,0H4.3v0h.83a0,0,0,0,0,0,0v0h0" transform="translate(0 0)"/><path class="cls-5" d="M4.33,9.64h.78a0,0,0,0,1,0,0,0,0,0,0,1,0,0H4.33a0,0,0,0,1,0,0s0,0,0,0" transform="translate(0 0)"/><path class="cls-6" d="M4.33,9.63h.81a0,0,0,0,1,0,0s0,0,0,0H4.3s0,0,0,0a0,0,0,0,1,0,0h0m.78,0h-.8v0h.8v0h0" transform="translate(0 0)"/><path class="cls-5" d="M4.59,9.11h.06v0h0v0h.06v0h0v0h.07v.1a0,0,0,0,1,0,0H4.61s0,0,0,0Z" transform="translate(0 0)"/><path class="cls-6" d="M4.58,9.1h.08v0h0v0h.08v0h0v0h.09v.1a0,0,0,0,1,0,0H4.58a0,0,0,0,1,0,0v-.1h0Zm0,0h0v.09h.25V9.12h0v.05H4.74V9.12h0v.05H4.63V9.12Z" transform="translate(0 0)"/><polygon class="cls-5" points="4.81 9.24 4.83 9.57 4.61 9.57 4.63 9.24 4.81 9.24"/><path class="cls-6" d="M4.83,9.24v.33H4.6V9.24h.2v0Zm0,.32v-.3H4.64l0,.3Z" transform="translate(0 0)"/><path class="cls-5" d="M4.85,9.27h.06v0H5v0H5v0h0v0h.06v.1s0,0,0,0H4.88s0,0,0,0Z" transform="translate(0 0)"/><path class="cls-6" d="M5.09,9.39v.18H4.87V9.38h.21Zm0,.17V9.41H4.9v.15Z" transform="translate(0 0)"/><path class="cls-6" d="M4.85,9.26h.07v0h0v0H5v0h0v0h.08v.1a0,0,0,0,1,0,0H4.88l0,0s0,0,0,0v-.1h0Zm.05,0h0v.09h.25V9.28h0v0H5v0H5v0H4.9Z" transform="translate(0 0)"/><path class="cls-5" d="M4.32,9.27h.06v0h0v0h.06v0h0v0h.06v.1s0,0,0,0H4.35s0,0,0,0Z" transform="translate(0 0)"/><path class="cls-6" d="M4.32,9.26h.07v0h0v0H4.5v0h0v0H4.6v.1a0,0,0,0,1,0,0H4.32a0,0,0,0,1,0,0v-.1h0Zm0,0h0v.09h.25V9.28h0v.05H4.47V9.28h0v.05H4.37V9.28Z" transform="translate(0 0)"/><polygon class="cls-5" points="4.55 9.39 4.56 9.57 4.35 9.57 4.36 9.39 4.55 9.39"/><path class="cls-6" d="M4.56,9.39v.18H4.34V9.38h.22Zm0,.17V9.41H4.37v.15Z" transform="translate(0 0)"/><path class="cls-6" d="M4.7,9.35a0,0,0,1,1,0,0v.07h0Z" transform="translate(0 0)"/><path class="cls-6" d="M5,9.46a0,0,0,0,1,0,0v.06H5Z" transform="translate(0 0)"/><path class="cls-6" d="M4.43,9.46a0,0,0,1,1,0,0v.06h0Z" transform="translate(0 0)"/><polygon class="cls-5" points="5.36 11.59 5.49 11.71 5.34 11.86 5.22 11.73 5.36 11.59"/><path class="cls-5" d="M5.41,12.45a.34.34,0,0,1-.09-.39.34.34,0,0,1,.39.1Z" transform="translate(0 0)"/><path class="cls-5" d="M5.06,12.33l.2.25.14-.15a.29.29,0,0,1-.07-.36.31.31,0,0,1,.36.07L5.84,12l-.25-.19Z" transform="translate(0 0)"/><path class="cls-6" d="M5.07,12.33l.19.23.13-.13,0-.06a.26.26,0,0,1,0-.21.35.35,0,0,1,0-.06Zm.18.25-.2-.24h0l.53-.53h0l.26.2h0l-.15.15h0a.36.36,0,0,0-.23-.09l-.1,0h0a.24.24,0,0,0,0,.08.25.25,0,0,0,.05.19.18.18,0,0,0,0,.07h0l-.14.15h0Zm.1-.53.24-.24.23.19-.13.12h0A.35.35,0,0,0,5.44,12l-.09,0" transform="translate(0 0)"/><path class="cls-5" d="M5.25,12.59l.6-.6H5.9s0,0,0,0l-.6.6s0,0,0,0a0,0,0,0,1,0-.05" transform="translate(0 0)"/><path class="cls-6" d="M5.24,12.58l.6-.6h.07a.06.06,0,0,1,0,0,0,0,0,0,1,0,0l-.6.6H5.24a.06.06,0,0,1,0,0,0,0,0,0,1,0,0M5.86,12l-.6.6h0s0,0,0,0h0l.6-.6h0v0h0" transform="translate(0 0)"/><path class="cls-5" d="M5.47,12.37a.21.21,0,0,1-.07-.23.22.22,0,0,1,.23.06Z" transform="translate(0 0)"/><path class="cls-6" d="M5.46,12.38a.24.24,0,0,1-.08-.25h0a.22.22,0,0,1,.25.07h0l-.17.17h0Zm-.06-.23a.23.23,0,0,0,.07.2l.14-.15a.21.21,0,0,0-.21,0" transform="translate(0 0)"/><path class="cls-5" d="M4.94,12.26l.58-.58a0,0,0,0,1,.05.05L5,12.31a0,0,0,0,1,0-.05" transform="translate(0 0)"/><path class="cls-6" d="M4.93,12.25l.58-.58h0l0,0s0,0,0,0v0L5,12.31l0,0,0,0,0,0a0,0,0,0,1,0,0m.6-.56L5,12.26v0H5l.58-.58h0s0,0,0,0h0" transform="translate(0 0)"/><path class="cls-5" d="M5,12.29l.55-.55a0,0,0,0,1,0,0,0,0,0,0,1,0,.05l-.55.54s0,0,0,0,0,0,0-.05" transform="translate(0 0)"/><path class="cls-6" d="M5,12.29l.54-.55s0,0,0,0h0a0,0,0,0,1,0,0s0,0,0,0l-.55.55s0,0,0,0H5l0,0s0,0,0,0m.56-.54L5,12.3v0H5l.55-.55v0h0" transform="translate(0 0)"/><path class="cls-5" d="M4.81,11.74l0,0,0,0,0,0,0,0,0-.05,0,0,0,0,0,0,0,0,.07.07a0,0,0,0,1,0,0l-.15.15h0Z" transform="translate(0 0)"/><path class="cls-6" d="M4.8,11.73l0,0h0l0,0h0l0,0h0l0-.05h0l0,0v0l0,0H5l0,0H5l.07.07a0,0,0,0,1,0,0s0,0,0,0l-.16.16h0l-.07-.07h0Zm0,0,0,0,.06.06h0l.15-.15h0L5,11.56l0,0,0,0H5l0,0H5l0,0,0,0,0,0h0l0,0h0Z" transform="translate(0 0)"/><polygon class="cls-5" points="5.07 11.67 5.3 11.89 5.15 12.04 4.93 11.81 5.07 11.67"/><path class="cls-6" d="M5.07,11.66l.24.22h0l-.15.15h0l-.22-.24h0l.14-.14h0Zm.22.23-.22-.2L5,11.81l.2.22Z" transform="translate(0 0)"/><path class="cls-5" d="M5.11,11.67l0-.05,0,0,0,0,0,0,0,0,0,0,0,0,0,0,0,0,.07.07s0,0,0,0l-.15.15s0,0,0,0Z" transform="translate(0 0)"/><path class="cls-6" d="M5.37,11.58l.13.12h0l-.15.14h0l-.11-.12h0l.13-.14h0Zm.1.13-.11-.1-.12.12.1.11Z" transform="translate(0 0)"/><path class="cls-6" d="M5.1,11.66l0-.05h0l0,0v0l0,0h0l0,0h0l0,0h0l0,0h0l0,0h0l.07.08s0,0,0,0v0l-.16.15,0,0,0,0-.07-.07h0Zm.05,0,0,0,.06.06h0l.15-.16h0l-.06-.06,0,0,0,0h0l0,0h0l0,0,0,0,0,0h0l0,0h0Z" transform="translate(0 0)"/><path class="cls-5" d="M4.73,12l0,0,0,0,0,0,0,0,0-.05,0,0,0,0,0,0,0,0,.07.07s0,0,0,0l-.15.15h0Z" transform="translate(0 0)"/><path class="cls-6" d="M4.72,12l0,0h0l0,0h0l0,0h0l0-.05h0l0,0v0l0,0h0l0,0h0l.07.07A.05.05,0,0,1,5,12l-.15.15H4.79l-.07-.07h0Zm0,0,0,0,.06.06h0L5,12H5l-.07-.06,0,0,0,0h0l0,0h0l0,0,0,0,0,0h0l0,0h0Z" transform="translate(0 0)"/><polygon class="cls-5" points="4.99 11.96 5.11 12.08 4.97 12.23 4.85 12.1 4.99 11.96"/><path class="cls-6" d="M5,12l.13.11h0L5,12.24H5l-.12-.13h0L5,12H5Zm.11.12L5,12l0,0-.1.1.1.11Z" transform="translate(0 0)"/><path class="cls-6" d="M5.06,11.83s0-.06,0,0l0,0,0,0Z" transform="translate(0 0)"/><path class="cls-6" d="M5.32,11.72a0,0,0,1,1,0,0l0,0,0,0Z" transform="translate(0 0)"/><path class="cls-6" d="M5,12.1s0-.06,0,0l0,0,0,0Z" transform="translate(0 0)"/><polygon class="cls-5" points="8.63 11.59 8.5 11.71 8.64 11.86 8.76 11.73 8.63 11.59"/><path class="cls-5" d="M8.57,12.45a.36.36,0,0,0,.1-.39.34.34,0,0,0-.39.1Z" transform="translate(0 0)"/><path class="cls-5" d="M8.93,12.33l-.2.25-.15-.15a.29.29,0,0,0,.08-.36.31.31,0,0,0-.36.07L8.15,12l.25-.2Z" transform="translate(0 0)"/><path class="cls-6" d="M8.91,12.33l-.18.23-.13-.13.05-.06a.31.31,0,0,0,0-.21.14.14,0,0,0,0-.06Zm-.17.26.2-.25h0l-.53-.53h0l-.25.2h0l.15.14h0a.27.27,0,0,1,.22-.08.27.27,0,0,1,.11,0h0s0,0,0,.08a.34.34,0,0,1,0,.2l-.06.06h0l.15.15h0Zm-.11-.54-.23-.23L8.17,12l.13.13h0A.35.35,0,0,1,8.55,12l.08,0" transform="translate(0 0)"/><path class="cls-5" d="M8.74,12.59l-.6-.6a0,0,0,0,0-.05,0s0,0,0,.05l.6.6s0,0,.05,0a0,0,0,0,0,0-.05" transform="translate(0 0)"/><path class="cls-6" d="M8.75,12.58l-.6-.6h0l0,0,0,0a.08.08,0,0,0,0,0l.59.59,0,0,0,0s0,0,0,0,0,0,0,0M8.13,12l.6.6h0a0,0,0,0,0,0,0h0l-.6-.6v0h0" transform="translate(0 0)"/><path class="cls-5" d="M8.52,12.37a.21.21,0,0,0,.07-.23.21.21,0,0,0-.23.07Z" transform="translate(0 0)"/><path class="cls-6" d="M8.53,12.38a.23.23,0,0,0,.07-.24h0a.24.24,0,0,0-.25.07h0l.16.16h0Zm.05-.23a.19.19,0,0,1-.06.2l-.14-.14a.19.19,0,0,1,.2-.06" transform="translate(0 0)"/><path class="cls-5" d="M9,12.26l-.57-.57s0,0-.05,0a0,0,0,0,0,0,.05l.57.57H9s0,0,0-.05" transform="translate(0 0)"/><path class="cls-6" d="M9.05,12.25l-.57-.58h0l0,0s0,0,0,0a0,0,0,0,0,0,0l.58.58H9l0,0s0,0,0,0l0,0m-.59-.56.58.58H9v0H9l-.57-.57s0,0,0,0h0" transform="translate(0 0)"/><path class="cls-5" d="M9,12.3l-.55-.55h0s0,0,0,.05l.55.55s0,0,.05,0a0,0,0,0,0,0,0" transform="translate(0 0)"/><path class="cls-6" d="M9,12.29l-.55-.55H8.38l0,0s0,0,0,0l.55.55H9l0,0a.05.05,0,0,0,0-.06m-.57-.53.55.55h0l-.55-.55h0v0h0" transform="translate(0 0)"/><path class="cls-5" d="M9.18,11.74l0,0,0,0,0,0,0,0,0,0,0,0,0,0,0,0,0,0-.07.07a0,0,0,0,0,0,0l.15.15h0Z" transform="translate(0 0)"/><path class="cls-6" d="M9.19,11.74l0-.05h0l0,0,0,0,0,0h0l0,0h0l0,0H9l0,0H9l0,0H9l-.07.07,0,0,0,0,.15.15,0,0,0,0,.07-.07h0Zm0,0,0,0-.06.06h0l-.16-.16h0L9,11.57l0,0,0,0H9l0,0H9l0,0,0,0,0,0h0l0,0h0Z" transform="translate(0 0)"/><polygon class="cls-5" points="8.92 11.68 8.68 11.9 8.84 12.05 9.05 11.81 8.92 11.68"/><path class="cls-6" d="M8.91,11.67l-.23.22h0l.16.16h0l.21-.23h0l-.13-.13h0Zm-.21.23.22-.21.12.12-.2.22Z" transform="translate(0 0)"/><path class="cls-5" d="M8.88,11.67l0,0,0,0,0,0,0,0-.05,0,0,0,0,0,0,0,0,0-.07.07a0,0,0,0,0,0,0l.15.16h0Z" transform="translate(0 0)"/><path class="cls-6" d="M8.62,11.58l-.13.12h0l.14.15h0l.12-.13h0l-.14-.14h0Zm-.1.13.1-.1.12.12-.1.11Z" transform="translate(0 0)"/><path class="cls-6" d="M8.89,11.66l0,0h0l0,0,0,0,0,0h0l-.05,0h0l0,0h0l0,0h0l0,0h0l-.07.07a0,0,0,0,0,0,0v0l.15.16h.06l.07-.07h0Zm-.05,0,0,0-.06.06h0l-.15-.15v0h0l.06-.07,0,0,0,0h0l0,0h0l0,0,0,0,0,0h0l0,0h0Z" transform="translate(0 0)"/><path class="cls-5" d="M9.25,12l0,0,0,0,0,0,0,0,0,0,0,0,0,0,0,0,0-.05L9,11.92a0,0,0,0,0,0,0l.16.15h0Z" transform="translate(0 0)"/><path class="cls-6" d="M9.26,12l0,0h0l0,0h0l0,0h0l0,0h0l0,0h0l0,0h0l0-.05h0L9,11.91V12l.16.15s0,0,0,0,0,0,0,0l.07-.07h0Zm0,0,0,0-.06.06h0L9,12H9l.06-.06,0,0,0,0h0l0,0h0l0,0,0,0,0,0h0l0,0h0Z" transform="translate(0 0)"/><polygon class="cls-5" points="9 11.97 8.87 12.09 9.02 12.23 9.14 12.11 9 11.97"/><path class="cls-6" d="M9,12l-.13.12h0l.15.14H9l.12-.13h0L9,12H9Zm-.1.13L9,12H9l.11.11-.1.1Z" transform="translate(0 0)"/><path class="cls-6" d="M8.93,11.83a0,0,0,0,0,0,0l-.05,0,0,0Z" transform="translate(0 0)"/><path class="cls-6" d="M8.66,11.72s0-.05,0,0l0,0,0,0Z" transform="translate(0 0)"/><path class="cls-6" d="M9,12.1a0,0,0,0,0,0,0l0,0,0,0Z" transform="translate(0 0)"/></g></g></g></svg>